<svg width="719" height="409" viewBox="0 0 719 409" fill="none" xmlns="http://www.w3.org/2000/svg">
<g style="mix-blend-mode:multiply" opacity="0.7">
<path d="M694.656 376.142H697.43V406.23H694.656V376.142Z" fill="#FEF7ED" stroke="#CCA978" stroke-miterlimit="10"/>
<path d="M675.146 357.916C675.146 353.769 678.493 350.394 682.606 350.394C683.562 350.394 684.423 350.587 685.283 350.876C687.961 348.465 691.5 347.019 695.421 347.019C696.855 347.019 698.194 347.212 699.438 347.597C700.107 346.826 701.159 346.344 702.211 346.344C704.315 346.344 706.132 348.08 706.132 350.298C706.132 350.683 706.037 350.973 706.037 351.262C706.419 351.648 706.802 352.033 707.184 352.419C707.854 351.937 708.619 351.744 709.384 351.744C711.488 351.744 713.305 353.48 713.305 355.698C713.305 356.18 713.209 356.662 713.018 357.048C715.026 358.109 716.461 360.327 716.461 362.834C716.461 366.209 713.974 368.909 710.723 369.295C710.723 369.488 710.818 369.681 710.818 369.97C710.818 372.092 709.097 373.924 706.897 373.924C706.61 373.924 706.419 373.924 706.132 373.828C703.359 376.528 699.533 378.264 695.421 378.264C692.074 378.264 688.918 377.203 686.431 375.274C685.762 375.756 684.996 376.046 684.136 376.046C682.032 376.046 680.215 374.31 680.215 372.092C680.215 370.935 680.693 369.874 681.458 369.199C681.362 369.102 681.362 369.006 681.267 368.813C680.884 368.909 680.406 369.006 679.928 369.006C677.728 369.006 675.911 367.174 675.911 364.956C675.911 363.991 676.198 363.123 676.772 362.448C675.815 361.291 675.146 359.652 675.146 357.916Z" fill="#FEF7ED" stroke="#CCA978" stroke-miterlimit="10"/>
<path d="M57.9068 404.203H91.3796V227.754L57.9068 246.403V404.203Z" fill="#FEF7ED" stroke="#CCA978" stroke-miterlimit="10"/>
<path d="M246.883 406.862H222.863V231.773L246.883 250.278V406.862Z" fill="#FEF7ED" stroke="#CCA978" stroke-miterlimit="10"/>
<path d="M365.716 406.862H340.432V250.735L365.716 267.152V406.862Z" fill="#FEF7ED" stroke="#CCA978" stroke-miterlimit="10"/>
<path d="M545.941 209.135H602.079V406.23H545.941V209.135Z" fill="#FEF7ED" stroke="#CCA978" stroke-miterlimit="10"/>
<path d="M546.027 224L546.027 219.272L571.275 219.272L571.275 224L546.027 224Z" fill="#FEF7ED" stroke="#CCA978" stroke-miterlimit="10"/>
<path d="M546.015 232.02L546.015 227.292L571.263 227.292L571.263 232.02L546.015 232.02Z" fill="#FEF7ED" stroke="#CCA978" stroke-miterlimit="10"/>
<path d="M546.002 240.04L546.002 235.312L571.25 235.313L571.25 240.04L546.002 240.04Z" fill="#FEF7ED" stroke="#CCA978" stroke-miterlimit="10"/>
<path d="M576.905 223.986L576.905 219.259L602.153 219.259L602.153 223.986L576.905 223.986Z" fill="#FEF7ED" stroke="#CCA978" stroke-miterlimit="10"/>
<path d="M576.892 232.006L576.892 227.278L602.14 227.278L602.14 232.006L576.892 232.006Z" fill="#FEF7ED" stroke="#CCA978" stroke-miterlimit="10"/>
<path d="M576.879 240.026L576.879 235.299L602.127 235.299L602.127 240.026L576.879 240.026Z" fill="#FEF7ED" stroke="#CCA978" stroke-miterlimit="10"/>
<path d="M545.956 250.313L545.956 245.585L571.204 245.585L571.204 250.313L545.956 250.313Z" fill="#FEF7ED" stroke="#CCA978" stroke-miterlimit="10"/>
<path d="M546.039 258.333L546.039 253.605L571.287 253.605L571.287 258.333L546.039 258.333Z" fill="#FEF7ED" stroke="#CCA978" stroke-miterlimit="10"/>
<path d="M546.026 266.353L546.026 261.625L571.274 261.625L571.274 266.353L546.026 266.353Z" fill="#FEF7ED" stroke="#CCA978" stroke-miterlimit="10"/>
<path d="M576.832 250.298L576.832 245.571L602.08 245.571L602.08 250.298L576.832 250.298Z" fill="#FEF7ED" stroke="#CCA978" stroke-miterlimit="10"/>
<path d="M576.915 258.318L576.915 253.591L602.163 253.591L602.163 258.318L576.915 258.318Z" fill="#FEF7ED" stroke="#CCA978" stroke-miterlimit="10"/>
<path d="M576.903 266.339L576.903 261.612L602.151 261.612L602.151 266.339L576.903 266.339Z" fill="#FEF7ED" stroke="#CCA978" stroke-miterlimit="10"/>
<path d="M545.981 276.627L545.981 271.899L571.229 271.899L571.229 276.627L545.981 276.627Z" fill="#FEF7ED" stroke="#CCA978" stroke-miterlimit="10"/>
<path d="M545.968 284.646L545.968 279.919L571.216 279.919L571.216 284.646L545.968 284.646Z" fill="#FEF7ED" stroke="#CCA978" stroke-miterlimit="10"/>
<path d="M545.954 292.667L545.954 287.939L571.202 287.939L571.202 292.667L545.954 292.667Z" fill="#FEF7ED" stroke="#CCA978" stroke-miterlimit="10"/>
<path d="M576.857 276.612L576.857 271.885L602.105 271.885L602.105 276.612L576.857 276.612Z" fill="#FEF7ED" stroke="#CCA978" stroke-miterlimit="10"/>
<path d="M576.844 284.632L576.844 279.905L602.092 279.905L602.092 284.632L576.844 284.632Z" fill="#FEF7ED" stroke="#CCA978" stroke-miterlimit="10"/>
<path d="M576.831 292.652L576.831 287.925L602.079 287.925L602.079 292.652L576.831 292.652Z" fill="#FEF7ED" stroke="#CCA978" stroke-miterlimit="10"/>
<path d="M546.004 302.94L546.004 298.212L571.252 298.212L571.252 302.94L546.004 302.94Z" fill="#FEF7ED" stroke="#CCA978" stroke-miterlimit="10"/>
<path d="M545.992 310.959L545.992 306.232L571.24 306.232L571.24 310.959L545.992 310.959Z" fill="#FEF7ED" stroke="#CCA978" stroke-miterlimit="10"/>
<path d="M545.979 318.98L545.979 314.252L571.227 314.252L571.227 318.98L545.979 318.98Z" fill="#FEF7ED" stroke="#CCA978" stroke-miterlimit="10"/>
<path d="M576.881 302.925L576.881 298.198L602.129 298.198L602.129 302.925L576.881 302.925Z" fill="#FEF7ED" stroke="#CCA978" stroke-miterlimit="10"/>
<path d="M576.868 310.945L576.868 306.218L602.116 306.218L602.116 310.945L576.868 310.945Z" fill="#FEF7ED" stroke="#CCA978" stroke-miterlimit="10"/>
<path d="M576.856 318.965L576.856 314.238L602.104 314.238L602.104 318.965L576.856 318.965Z" fill="#FEF7ED" stroke="#CCA978" stroke-miterlimit="10"/>
<path d="M546.029 329.252L546.029 324.525L571.277 324.525L571.277 329.252L546.029 329.252Z" fill="#FEF7ED" stroke="#CCA978" stroke-miterlimit="10"/>
<path d="M546.016 337.273L546.016 332.545L571.264 332.545L571.264 337.273L546.016 337.273Z" fill="#FEF7ED" stroke="#CCA978" stroke-miterlimit="10"/>
<path d="M546.003 345.293L546.003 340.565L571.251 340.565L571.251 345.293L546.003 345.293Z" fill="#FEF7ED" stroke="#CCA978" stroke-miterlimit="10"/>
<path d="M576.905 329.239L576.905 324.512L602.153 324.512L602.153 329.239L576.905 329.239Z" fill="#FEF7ED" stroke="#CCA978" stroke-miterlimit="10"/>
<path d="M576.893 337.259L576.893 332.532L602.141 332.532L602.141 337.259L576.893 337.259Z" fill="#FEF7ED" stroke="#CCA978" stroke-miterlimit="10"/>
<path d="M576.88 345.279L576.88 340.552L602.128 340.552L602.128 345.279L576.88 345.279Z" fill="#FEF7ED" stroke="#CCA978" stroke-miterlimit="10"/>
<path d="M545.957 355.566L545.957 350.839L571.205 350.839L571.205 355.566L545.957 355.566Z" fill="#FEF7ED" stroke="#CCA978" stroke-miterlimit="10"/>
<path d="M546.041 363.586L546.041 358.859L571.289 358.859L571.289 363.586L546.041 363.586Z" fill="#FEF7ED" stroke="#CCA978" stroke-miterlimit="10"/>
<path d="M546.028 371.606L546.028 366.879L571.276 366.879L571.276 371.606L546.028 371.606Z" fill="#FEF7ED" stroke="#CCA978" stroke-miterlimit="10"/>
<path d="M576.834 355.552L576.834 350.825L602.082 350.825L602.082 355.552L576.834 355.552Z" fill="#FEF7ED" stroke="#CCA978" stroke-miterlimit="10"/>
<path d="M576.917 363.572L576.917 358.845L602.165 358.845L602.165 363.572L576.917 363.572Z" fill="#FEF7ED" stroke="#CCA978" stroke-miterlimit="10"/>
<path d="M576.905 371.592L576.905 366.865L602.153 366.865L602.153 371.592L576.905 371.592Z" fill="#FEF7ED" stroke="#CCA978" stroke-miterlimit="10"/>
<path d="M561.051 172.668V209.135" stroke="#FEF7ED" stroke-miterlimit="10"/>
<path d="M558.564 186.946V208.267" stroke="#FEF7ED" stroke-miterlimit="10"/>
<path d="M310.004 315.645H330.47V342H310.004V315.645Z" fill="#FEF7ED" stroke="#CCA978" stroke-miterlimit="10"/>
<path d="M243.059 348.542H337.452V406.581H243.059V348.542Z" fill="#FEF7ED" stroke="#CCA978" stroke-miterlimit="10"/>
<path d="M242.676 406.862H337.739V348.169H242.676V406.862ZM337.165 406.301H243.346V348.917H337.165V406.301Z" fill="#FEF7ED" stroke="#CCA978" stroke-miterlimit="10"/>
<path d="M238.468 341.534H342.043V348.917H238.468V341.534Z" fill="#FEF7ED" stroke="#CCA978" stroke-miterlimit="10"/>
<path d="M238.086 349.291H342.33V341.253H238.086V349.291ZM341.66 348.636H238.66V341.814H341.66V348.636Z" fill="#FEF7ED" stroke="#CCA978" stroke-miterlimit="10"/>
<path d="M238.468 334.523H342.043V341.907H238.468V334.523Z" fill="#FEF7ED" stroke="#CCA978" stroke-miterlimit="10"/>
<path d="M238.086 342.188H342.33V334.15H238.086V342.188ZM341.66 341.627H238.66V334.804H341.66V341.627Z" fill="#FEF7ED" stroke="#CCA978" stroke-miterlimit="10"/>
<path d="M255.396 361.253H288.295V406.301H255.396V361.253Z" fill="#FEF7ED" stroke="#CCA978" stroke-miterlimit="10"/>
<path d="M313.448 361.253H325.785V372.562H313.448V361.253Z" fill="#FEF7ED" stroke="#CCA978" stroke-miterlimit="10"/>
<path d="M297.572 361.253H309.909V372.562H297.572V361.253Z" fill="#FEF7ED" stroke="#CCA978" stroke-miterlimit="10"/>
<path d="M216.95 96.3496H218.098V98.5493H216.95V96.3496Z" fill="#FEF7ED" stroke="#CCA978" stroke-miterlimit="10"/>
<path d="M213.029 85.0654C210.447 87.6476 210.447 91.8556 213.029 94.4378C215.611 97.02 219.819 97.02 222.401 94.4378" fill="#FEF7ED"/>
<path d="M213.029 85.0654C210.447 87.6476 210.447 91.8556 213.029 94.4378C215.611 97.02 219.819 97.02 222.401 94.4378" stroke="#CCA978" stroke-miterlimit="10"/>
<path d="M191.128 98.4536H222.688V406.212H191.128V98.4536Z" fill="#FEF7ED" stroke="#CCA978" stroke-miterlimit="10"/>
<path d="M212.742 104.383H220.68V112.321H212.742V104.383Z" fill="#E6CFAE"/>
<path d="M200.978 104.383H208.916V112.321H200.978V104.383Z" fill="#E6CFAE"/>
<path d="M212.742 117.772H220.68V125.71H212.742V117.772Z" fill="#E6CFAE"/>
<path d="M200.978 117.772H208.916V125.71H200.978V117.772Z" fill="#E6CFAE"/>
<path d="M212.742 131.162H220.68V139.099H212.742V131.162Z" fill="#E6CFAE"/>
<path d="M200.978 131.162H208.916V139.099H200.978V131.162Z" fill="#E6CFAE"/>
<path d="M212.742 144.55H220.68V152.488H212.742V144.55Z" fill="#E6CFAE"/>
<path d="M200.978 144.55H208.916V152.488H200.978V144.55Z" fill="#E6CFAE"/>
<path d="M212.742 157.939H220.68V165.877H212.742V157.939Z" fill="#E6CFAE"/>
<path d="M200.978 157.939H208.916V165.877H200.978V157.939Z" fill="#E6CFAE"/>
<path d="M212.742 171.329H220.68V179.267H212.742V171.329Z" fill="#E6CFAE"/>
<path d="M200.978 171.329H208.916V179.267H200.978V171.329Z" fill="#E6CFAE"/>
<path d="M212.742 184.718H220.68V192.656H212.742V184.718Z" fill="#E6CFAE"/>
<path d="M200.978 184.718H208.916V192.656H200.978V184.718Z" fill="#E6CFAE"/>
<path d="M212.742 198.107H220.68V206.045H212.742V198.107Z" fill="#E6CFAE"/>
<path d="M200.978 198.107H208.916V206.045H200.978V198.107Z" fill="#E6CFAE"/>
<path d="M212.742 211.496H220.68V219.434H212.742V211.496Z" fill="#E6CFAE"/>
<path d="M200.978 211.496H208.916V219.434H200.978V211.496Z" fill="#E6CFAE"/>
<path d="M212.742 224.885H220.68V232.823H212.742V224.885Z" fill="#E6CFAE"/>
<path d="M200.978 224.885H208.916V232.823H200.978V224.885Z" fill="#E6CFAE"/>
<path d="M212.742 238.275H220.68V246.213H212.742V238.275Z" fill="#E6CFAE"/>
<path d="M200.978 238.275H208.916V246.213H200.978V238.275Z" fill="#E6CFAE"/>
<path d="M212.742 251.664H220.68V259.601H212.742V251.664Z" fill="#E6CFAE"/>
<path d="M200.978 251.664H208.916V259.601H200.978V251.664Z" fill="#E6CFAE"/>
<path d="M212.742 265.053H220.68V272.991H212.742V265.053Z" fill="#E6CFAE"/>
<path d="M200.978 265.053H208.916V272.991H200.978V265.053Z" fill="#E6CFAE"/>
<path d="M212.742 278.442H220.68V286.38H212.742V278.442Z" fill="#E6CFAE"/>
<path d="M200.978 278.442H208.916V286.38H200.978V278.442Z" fill="#E6CFAE"/>
<path d="M212.742 291.831H220.68V299.769H212.742V291.831Z" fill="#E6CFAE"/>
<path d="M200.978 291.831H208.916V299.769H200.978V291.831Z" fill="#E6CFAE"/>
<path d="M212.742 305.22H220.68V313.158H212.742V305.22Z" fill="#E6CFAE"/>
<path d="M200.978 305.22H208.916V313.158H200.978V305.22Z" fill="#E6CFAE"/>
<path d="M212.742 318.609H220.68V326.547H212.742V318.609Z" fill="#E6CFAE"/>
<path d="M200.978 318.609H208.916V326.547H200.978V318.609Z" fill="#E6CFAE"/>
<path d="M212.742 331.998H220.68V339.936H212.742V331.998Z" fill="#E6CFAE"/>
<path d="M200.978 331.998H208.916V339.936H200.978V331.998Z" fill="#E6CFAE"/>
<path d="M212.742 345.387H220.68V353.325H212.742V345.387Z" fill="#E6CFAE"/>
<path d="M200.978 345.387H208.916V353.325H200.978V345.387Z" fill="#E6CFAE"/>
<path d="M212.742 358.777H220.68V366.715H212.742V358.777Z" fill="#E6CFAE"/>
<path d="M200.978 358.777H208.916V366.715H200.978V358.777Z" fill="#E6CFAE"/>
<path d="M212.742 372.166H220.68V380.103H212.742V372.166Z" fill="#E6CFAE"/>
<path d="M200.978 372.166H208.916V380.103H200.978V372.166Z" fill="#E6CFAE"/>
<path d="M200.979 75.4053V98.4537" stroke="#FEF7ED" stroke-miterlimit="10"/>
<path d="M407.745 406.862H464.458V97.9775L407.745 130.557V406.862Z" fill="#FEF7ED" stroke="#CCA978" stroke-miterlimit="10"/>
<path d="M549.957 406.861H492.766V47.2563L549.957 85.1545V406.861Z" fill="#FEF7ED" stroke="#CCA978" stroke-miterlimit="10"/>
<path d="M505.677 406.862H448.486V1L505.677 43.8373V406.862Z" fill="#FEF7ED" stroke="#CCA978" stroke-miterlimit="10"/>
<path d="M486.359 65.1138H494.105V95.1284H486.359V65.1138Z" fill="#FEF7ED" stroke="#CCA978" stroke-miterlimit="10"/>
<path d="M473.161 65.1138H480.907V95.1284H473.161V65.1138Z" fill="#FEF7ED" stroke="#CCA978" stroke-miterlimit="10"/>
<path d="M460.058 65.1138H467.805V95.1284H460.058V65.1138Z" fill="#FEF7ED" stroke="#CCA978" stroke-miterlimit="10"/>
<path d="M486.359 113.839H494.105V143.854H486.359V113.839Z" fill="#FEF7ED" stroke="#CCA978" stroke-miterlimit="10"/>
<path d="M473.161 113.839H480.907V143.854H473.161V113.839Z" fill="#FEF7ED" stroke="#CCA978" stroke-miterlimit="10"/>
<path d="M460.058 113.839H467.805V143.854H460.058V113.839Z" fill="#FEF7ED" stroke="#CCA978" stroke-miterlimit="10"/>
<path d="M486.359 162.471H494.105V192.486H486.359V162.471Z" fill="#FEF7ED" stroke="#CCA978" stroke-miterlimit="10"/>
<path d="M473.161 162.471H480.907V192.486H473.161V162.471Z" fill="#FEF7ED" stroke="#CCA978" stroke-miterlimit="10"/>
<path d="M460.058 162.471H467.805V192.486H460.058V162.471Z" fill="#FEF7ED" stroke="#CCA978" stroke-miterlimit="10"/>
<path d="M486.359 211.197H494.105V241.212H486.359V211.197Z" fill="#FEF7ED" stroke="#CCA978" stroke-miterlimit="10"/>
<path d="M473.161 211.197H480.907V241.212H473.161V211.197Z" fill="#FEF7ED" stroke="#CCA978" stroke-miterlimit="10"/>
<path d="M460.058 211.197H467.805V241.212H460.058V211.197Z" fill="#FEF7ED" stroke="#CCA978" stroke-miterlimit="10"/>
<path d="M486.359 259.923H494.105V289.938H486.359V259.923Z" fill="#FEF7ED" stroke="#CCA978" stroke-miterlimit="10"/>
<path d="M473.161 259.923H480.907V289.938H473.161V259.923Z" fill="#FEF7ED" stroke="#CCA978" stroke-miterlimit="10"/>
<path d="M460.058 259.923H467.805V289.938H460.058V259.923Z" fill="#FEF7ED" stroke="#CCA978" stroke-miterlimit="10"/>
<path d="M486.359 308.555H494.105V338.569H486.359V308.555Z" fill="#FEF7ED" stroke="#CCA978" stroke-miterlimit="10"/>
<path d="M528.726 97.9775H536.473V127.992H528.726V97.9775Z" fill="#FEF7ED" stroke="#CCA978" stroke-miterlimit="10"/>
<path d="M528.726 146.704H536.473V176.719H528.726V146.704Z" fill="#FEF7ED" stroke="#CCA978" stroke-miterlimit="10"/>
<path d="M528.726 195.43H536.473V225.445H528.726V195.43Z" fill="#FEF7ED" stroke="#CCA978" stroke-miterlimit="10"/>
<path d="M528.726 244.062H536.473V274.076H528.726V244.062Z" fill="#FEF7ED" stroke="#CCA978" stroke-miterlimit="10"/>
<path d="M528.726 292.787H536.473V322.802H528.726V292.787Z" fill="#FEF7ED" stroke="#CCA978" stroke-miterlimit="10"/>
<path d="M528.726 341.514H536.473V371.528H528.726V341.514Z" fill="#FEF7ED" stroke="#CCA978" stroke-miterlimit="10"/>
<path d="M421.23 139.011H428.977V169.025H421.23V139.011Z" fill="#FEF7ED" stroke="#CCA978" stroke-miterlimit="10"/>
<path d="M421.23 187.736H428.977V217.751H421.23V187.736Z" fill="#FEF7ED" stroke="#CCA978" stroke-miterlimit="10"/>
<path d="M421.23 236.368H428.977V266.382H421.23V236.368Z" fill="#FEF7ED" stroke="#CCA978" stroke-miterlimit="10"/>
<path d="M421.23 285.094H428.977V315.109H421.23V285.094Z" fill="#FEF7ED" stroke="#CCA978" stroke-miterlimit="10"/>
<path d="M421.23 333.82H428.977V363.834H421.23V333.82Z" fill="#FEF7ED" stroke="#CCA978" stroke-miterlimit="10"/>
<path d="M473.161 308.555H480.907V338.569H473.161V308.555Z" fill="#FEF7ED" stroke="#CCA978" stroke-miterlimit="10"/>
<path d="M460.058 308.555H467.805V338.569H460.058V308.555Z" fill="#FEF7ED" stroke="#CCA978" stroke-miterlimit="10"/>
<path d="M201.075 346.917H212.647V368.313H201.075V346.917Z" fill="#FEF7ED" stroke="#CCA978" stroke-miterlimit="10"/>
<path d="M151.248 372.095H215.038V406.862H151.248V372.095Z" fill="#FEF7ED" stroke="#CCA978" stroke-miterlimit="10"/>
<path d="M183.191 346.917L163.681 359.829L144.171 372.647H183.191H222.211L202.701 359.829L183.191 346.917Z" fill="#FEF7ED" stroke="#CCA978" stroke-miterlimit="10"/>
<path d="M160.526 377.628H165.212V395.242H160.526V377.628Z" fill="#FEF7ED" stroke="#CCA978" stroke-miterlimit="10"/>
<path d="M173.053 377.628H209.108V395.242H173.053V377.628Z" fill="#FEF7ED" stroke="#CCA978" stroke-miterlimit="10"/>
<path d="M358.014 329.895H374.942V352.178H358.014V329.895Z" fill="#FEF7ED" stroke="#CCA978" stroke-miterlimit="10"/>
<path d="M302.927 357.63H380.775V406.596H302.927V357.63Z" fill="#FEF7ED" stroke="#CCA978" stroke-miterlimit="10"/>
<path d="M302.64 406.883H381.062V357.343H302.64V406.883ZM380.488 406.309H303.118V357.821H380.488V406.309Z" fill="#FEF7ED" stroke="#CCA978" stroke-miterlimit="10"/>
<path d="M299.102 351.7H384.506V357.917H299.102V351.7Z" fill="#FEF7ED" stroke="#CCA978" stroke-miterlimit="10"/>
<path d="M298.815 358.203H384.792V351.413H298.815V358.203ZM384.219 357.725H299.293V351.987H384.219V357.725Z" fill="#FEF7ED" stroke="#CCA978" stroke-miterlimit="10"/>
<path d="M299.102 345.77H384.506V351.986H299.102V345.77Z" fill="#FEF7ED" stroke="#CCA978" stroke-miterlimit="10"/>
<path d="M298.815 352.274H384.792V345.484H298.815V352.274ZM384.219 351.796H299.293V346.058H384.219V351.796Z" fill="#FEF7ED" stroke="#CCA978" stroke-miterlimit="10"/>
<path d="M313.161 368.341H340.226V406.309H313.161V368.341Z" fill="#FEF7ED" stroke="#CCA978" stroke-miterlimit="10"/>
<path d="M360.884 368.341H371.117V377.904H360.884V368.341Z" fill="#FEF7ED" stroke="#CCA978" stroke-miterlimit="10"/>
<path d="M347.877 368.341H358.11V377.904H347.877V368.341Z" fill="#FEF7ED" stroke="#CCA978" stroke-miterlimit="10"/>
<path d="M638.181 406.037L638.181 321.952L586.676 321.952L586.676 406.037L638.181 406.037Z" fill="#FEF7ED" stroke="#E6CFAE"/>
<mask id="path-150-inside-1_174_2" fill="white">
<path d="M585.916 406.862H638.898V321.191H585.916V406.862ZM638.42 406.276H586.394V321.679H638.325V406.276H638.42Z"/>
</mask>
<path d="M585.916 406.862H638.898V321.191H585.916V406.862ZM638.42 406.276H586.394V321.679H638.325V406.276H638.42Z" fill="#FEF7ED"/>
<path d="M585.916 406.862V407.862H584.916V406.862H585.916ZM638.898 406.862H639.898V407.862H638.898V406.862ZM638.898 321.191V320.191H639.898V321.191H638.898ZM585.916 321.191H584.916V320.191H585.916V321.191ZM586.394 406.276V407.276H585.394V406.276H586.394ZM586.394 321.679H585.394V320.679H586.394V321.679ZM638.325 321.679V320.679H639.325V321.679H638.325ZM638.325 406.276V407.276H637.325V406.276H638.325ZM585.916 405.862H638.898V407.862H585.916V405.862ZM637.898 406.862V321.191H639.898V406.862H637.898ZM638.898 322.191H585.916V320.191H638.898V322.191ZM586.916 321.191V406.862H584.916V321.191H586.916ZM638.42 407.276H586.394V405.276H638.42V407.276ZM585.394 406.276V321.679H587.394V406.276H585.394ZM586.394 320.679H638.325V322.679H586.394V320.679ZM639.325 321.679V406.276H637.325V321.679H639.325ZM638.325 405.276H638.42V407.276H638.325V405.276Z" fill="#E6CFAE" mask="url(#path-150-inside-1_174_2)"/>
<path d="M633.098 390.556L633.098 399.068L591.783 399.068L591.783 390.556L633.098 390.556Z" fill="#E6CFAE"/>
<path d="M633.036 377.869L633.036 386.381L591.721 386.381L591.721 377.869L633.036 377.869Z" fill="#E6CFAE"/>
<path d="M633.069 365.184L633.069 373.695L591.754 373.695L591.754 365.184L633.069 365.184Z" fill="#E6CFAE"/>
<path d="M633.103 352.497L633.103 361.009L591.788 361.009L591.788 352.497L633.103 352.497Z" fill="#E6CFAE"/>
<path d="M633.04 339.811L633.04 348.323L591.725 348.323L591.725 339.811L633.04 339.811Z" fill="#E6CFAE"/>
<path d="M633.073 327.125L633.073 335.636L591.758 335.636L591.758 327.125L633.073 327.125Z" fill="#E6CFAE"/>
<path d="M641.268 319.205H583.642V320.979H641.268V319.205Z" fill="#FEF7ED" stroke="#E6CFAE"/>
<mask id="path-159-inside-2_174_2" fill="white">
<path d="M582.856 321.765H642.055V318.418H582.856V321.765ZM641.481 321.287H583.334V318.992H641.481V321.287Z"/>
</mask>
<path d="M582.856 321.765H642.055V318.418H582.856V321.765ZM641.481 321.287H583.334V318.992H641.481V321.287Z" fill="#FEF7ED"/>
<path d="M582.856 321.765V322.765H581.856V321.765H582.856ZM642.055 321.765H643.055V322.765H642.055V321.765ZM642.055 318.418V317.418H643.055V318.418H642.055ZM582.856 318.418H581.856V317.418H582.856V318.418ZM641.481 321.287H642.481V322.287H641.481V321.287ZM583.334 321.287V322.287H582.334V321.287H583.334ZM583.334 318.992H582.334V317.992H583.334V318.992ZM641.481 318.992V317.992H642.481V318.992H641.481ZM582.856 320.765H642.055V322.765H582.856V320.765ZM641.055 321.765V318.418H643.055V321.765H641.055ZM642.055 319.418H582.856V317.418H642.055V319.418ZM583.856 318.418V321.765H581.856V318.418H583.856ZM641.481 322.287H583.334V320.287H641.481V322.287ZM582.334 321.287V318.992H584.334V321.287H582.334ZM583.334 317.992H641.481V319.992H583.334V317.992ZM642.481 318.992V321.287H640.481V318.992H642.481Z" fill="#E6CFAE" mask="url(#path-159-inside-2_174_2)"/>
<path d="M645.116 317.749V406.117" stroke="#FEF7ED" stroke-miterlimit="10"/>
<path d="M645.689 318.227H637.752" stroke="#E6CFAE" stroke-miterlimit="10"/>
<path d="M645.689 320.618H637.752" stroke="#E6CFAE" stroke-miterlimit="10"/>
<path d="M645.689 323.008H637.752" stroke="#E6CFAE" stroke-miterlimit="10"/>
<path d="M645.689 325.304H637.752" stroke="#E6CFAE" stroke-miterlimit="10"/>
<path d="M645.689 327.695H637.752" stroke="#E6CFAE" stroke-miterlimit="10"/>
<path d="M645.689 330.085H637.752" stroke="#E6CFAE" stroke-miterlimit="10"/>
<path d="M645.689 332.381H637.752" stroke="#E6CFAE" stroke-miterlimit="10"/>
<path d="M645.689 334.771H637.752" stroke="#E6CFAE" stroke-miterlimit="10"/>
<path d="M645.689 337.163H637.752" stroke="#E6CFAE" stroke-miterlimit="10"/>
<path d="M645.689 339.458H637.752" stroke="#E6CFAE" stroke-miterlimit="10"/>
<path d="M645.689 341.849H637.752" stroke="#E6CFAE" stroke-miterlimit="10"/>
<path d="M645.689 344.24H637.752" stroke="#E6CFAE" stroke-miterlimit="10"/>
<path d="M645.689 346.535H637.752" stroke="#E6CFAE" stroke-miterlimit="10"/>
<path d="M645.689 348.926H637.752" stroke="#E6CFAE" stroke-miterlimit="10"/>
<path d="M645.689 351.317H637.752" stroke="#E6CFAE" stroke-miterlimit="10"/>
<path d="M645.689 353.612H637.752" stroke="#E6CFAE" stroke-miterlimit="10"/>
<path d="M645.689 356.003H637.752" stroke="#E6CFAE" stroke-miterlimit="10"/>
<path d="M645.689 358.298H637.752" stroke="#E6CFAE" stroke-miterlimit="10"/>
<path d="M645.689 360.69H637.752" stroke="#E6CFAE" stroke-miterlimit="10"/>
<path d="M645.689 363.08H637.752" stroke="#E6CFAE" stroke-miterlimit="10"/>
<path d="M645.689 365.375H637.752" stroke="#E6CFAE" stroke-miterlimit="10"/>
<path d="M645.689 367.767H637.752" stroke="#E6CFAE" stroke-miterlimit="10"/>
<path d="M645.689 370.157H637.752" stroke="#E6CFAE" stroke-miterlimit="10"/>
<path d="M645.689 372.453H637.752" stroke="#E6CFAE" stroke-miterlimit="10"/>
<path d="M645.689 374.843H637.752" stroke="#E6CFAE" stroke-miterlimit="10"/>
<path d="M645.689 377.234H637.752" stroke="#E6CFAE" stroke-miterlimit="10"/>
<path d="M645.689 379.53H637.752" stroke="#E6CFAE" stroke-miterlimit="10"/>
<path d="M645.689 381.92H637.752" stroke="#E6CFAE" stroke-miterlimit="10"/>
<path d="M645.689 384.312H637.752" stroke="#E6CFAE" stroke-miterlimit="10"/>
<path d="M645.689 386.607H637.752" stroke="#E6CFAE" stroke-miterlimit="10"/>
<path d="M645.689 388.998H637.752" stroke="#E6CFAE" stroke-miterlimit="10"/>
<path d="M645.689 391.389H637.752" stroke="#E6CFAE" stroke-miterlimit="10"/>
<path d="M645.689 393.684H637.752" stroke="#E6CFAE" stroke-miterlimit="10"/>
<path d="M645.689 396.074H637.752" stroke="#E6CFAE" stroke-miterlimit="10"/>
<path d="M645.689 398.466H637.752" stroke="#E6CFAE" stroke-miterlimit="10"/>
<path d="M645.689 400.761H637.752" stroke="#E6CFAE" stroke-miterlimit="10"/>
<path d="M645.689 403.152H637.752" stroke="#E6CFAE" stroke-miterlimit="10"/>
<path d="M645.689 405.542H637.752" stroke="#E6CFAE" stroke-miterlimit="10"/>
<path d="M152.395 289.046V408.127" stroke="#FEF7ED" stroke-miterlimit="10"/>
<path d="M153.064 289.71H143.788" stroke="#FEF7ED" stroke-miterlimit="10"/>
<path d="M153.064 292.842H143.788" stroke="#FEF7ED" stroke-miterlimit="10"/>
<path d="M153.064 296.068H143.788" stroke="#FEF7ED" stroke-miterlimit="10"/>
<path d="M153.064 299.199H143.788" stroke="#FEF7ED" stroke-miterlimit="10"/>
<path d="M153.064 302.425H143.788" stroke="#FEF7ED" stroke-miterlimit="10"/>
<path d="M153.064 305.556H143.788" stroke="#FEF7ED" stroke-miterlimit="10"/>
<path d="M153.064 308.783H143.788" stroke="#FEF7ED" stroke-miterlimit="10"/>
<path d="M153.064 311.914H143.788" stroke="#FEF7ED" stroke-miterlimit="10"/>
<path d="M153.064 315.14H143.788" stroke="#FEF7ED" stroke-miterlimit="10"/>
<path d="M153.064 318.271H143.788" stroke="#FEF7ED" stroke-miterlimit="10"/>
<path d="M153.064 321.497H143.788" stroke="#FEF7ED" stroke-miterlimit="10"/>
<path d="M153.064 324.628H143.788" stroke="#FEF7ED" stroke-miterlimit="10"/>
<path d="M153.064 327.854H143.788" stroke="#FEF7ED" stroke-miterlimit="10"/>
<path d="M153.064 331.08H143.788" stroke="#FEF7ED" stroke-miterlimit="10"/>
<path d="M153.064 334.211H143.788" stroke="#FEF7ED" stroke-miterlimit="10"/>
<path d="M153.064 337.438H143.788" stroke="#FEF7ED" stroke-miterlimit="10"/>
<path d="M153.064 340.568H143.788" stroke="#FEF7ED" stroke-miterlimit="10"/>
<path d="M153.064 343.795H143.788" stroke="#FEF7ED" stroke-miterlimit="10"/>
<path d="M153.064 346.926H143.788" stroke="#FEF7ED" stroke-miterlimit="10"/>
<path d="M153.064 350.152H143.788" stroke="#FEF7ED" stroke-miterlimit="10"/>
<path d="M153.064 353.283H143.788" stroke="#FEF7ED" stroke-miterlimit="10"/>
<path d="M153.064 356.509H143.788" stroke="#FEF7ED" stroke-miterlimit="10"/>
<path d="M153.064 359.641H143.788" stroke="#FEF7ED" stroke-miterlimit="10"/>
<path d="M153.064 362.867H143.788" stroke="#FEF7ED" stroke-miterlimit="10"/>
<path d="M153.064 365.998H143.788" stroke="#FEF7ED" stroke-miterlimit="10"/>
<path d="M153.064 369.224H143.788" stroke="#FEF7ED" stroke-miterlimit="10"/>
<path d="M153.064 372.45H143.788" stroke="#FEF7ED" stroke-miterlimit="10"/>
<path d="M153.064 375.581H143.788" stroke="#FEF7ED" stroke-miterlimit="10"/>
<path d="M153.064 378.807H143.788" stroke="#FEF7ED" stroke-miterlimit="10"/>
<path d="M153.064 381.938H143.788" stroke="#FEF7ED" stroke-miterlimit="10"/>
<path d="M153.064 385.165H143.788" stroke="#FEF7ED" stroke-miterlimit="10"/>
<path d="M153.064 388.296H143.788" stroke="#FEF7ED" stroke-miterlimit="10"/>
<path d="M153.064 391.521H143.788" stroke="#FEF7ED" stroke-miterlimit="10"/>
<path d="M153.064 394.653H143.788" stroke="#FEF7ED" stroke-miterlimit="10"/>
<path d="M153.064 397.879H143.788" stroke="#FEF7ED" stroke-miterlimit="10"/>
<path d="M153.064 401.011H143.788" stroke="#FEF7ED" stroke-miterlimit="10"/>
<path d="M153.064 404.236H143.788" stroke="#FEF7ED" stroke-miterlimit="10"/>
<path d="M153.064 407.368H143.788" stroke="#FEF7ED" stroke-miterlimit="10"/>
<path d="M88.2234 112.465H141.302V289.331H88.2234V112.465Z" fill="#FEF7ED" stroke="#CCA978" stroke-miterlimit="10"/>
<path d="M82.0065 288.571H147.518V359.83H82.0065V288.571Z" fill="#FEF7ED" stroke="#CCA978" stroke-miterlimit="10"/>
<path d="M74.9295 359.926H154.595V406.419H74.9295V359.926Z" fill="#FEF7ED" stroke="#CCA978" stroke-miterlimit="10"/>
<path d="M126.095 293.979H133.938V298.913H126.095V293.979Z" fill="#E6CFAE"/>
<path d="M126.095 302.139H133.938V307.073H126.095V302.139Z" fill="#E6CFAE"/>
<path d="M126.095 310.394H133.938V315.328H126.095V310.394Z" fill="#E6CFAE"/>
<path d="M126.095 318.554H133.938V323.488H126.095V318.554Z" fill="#E6CFAE"/>
<path d="M126.095 326.714H133.938V331.648H126.095V326.714Z" fill="#E6CFAE"/>
<path d="M126.095 343.034H133.938V347.968H126.095V343.034Z" fill="#E6CFAE"/>
<path d="M126.095 351.194H133.938V356.128H126.095V351.194Z" fill="#E6CFAE"/>
<path d="M115.958 293.979H123.8V298.913H115.958V293.979Z" fill="#E6CFAE"/>
<path d="M115.958 302.139H123.8V307.073H115.958V302.139Z" fill="#E6CFAE"/>
<path d="M115.958 310.394H123.8V315.328H115.958V310.394Z" fill="#E6CFAE"/>
<path d="M115.958 318.554H123.8V323.488H115.958V318.554Z" fill="#E6CFAE"/>
<path d="M115.958 326.714H123.8V331.648H115.958V326.714Z" fill="#E6CFAE"/>
<path d="M115.958 334.874H123.8V339.808H115.958V334.874Z" fill="#E6CFAE"/>
<path d="M115.958 343.034H123.8V347.968H115.958V343.034Z" fill="#E6CFAE"/>
<path d="M115.958 351.194H123.8V356.128H115.958V351.194Z" fill="#E6CFAE"/>
<path d="M105.724 293.979H113.567V298.913H105.724V293.979Z" fill="#E6CFAE"/>
<path d="M105.724 302.139H113.567V307.073H105.724V302.139Z" fill="#E6CFAE"/>
<path d="M105.724 310.394H113.567V315.328H105.724V310.394Z" fill="#E6CFAE"/>
<path d="M105.724 326.714H113.567V331.648H105.724V326.714Z" fill="#E6CFAE"/>
<path d="M105.724 334.874H113.567V339.808H105.724V334.874Z" fill="#E6CFAE"/>
<path d="M105.724 351.194H113.567V356.128H105.724V351.194Z" fill="#E6CFAE"/>
<path d="M95.5867 293.979H103.429V298.913H95.5867V293.979Z" fill="#E6CFAE"/>
<path d="M95.5867 302.139H103.429V307.073H95.5867V302.139Z" fill="#E6CFAE"/>
<path d="M95.5867 310.394H103.429V315.328H95.5867V310.394Z" fill="#E6CFAE"/>
<path d="M95.5867 318.554H103.429V323.488H95.5867V318.554Z" fill="#E6CFAE"/>
<path d="M95.5867 326.714H103.429V331.648H95.5867V326.714Z" fill="#E6CFAE"/>
<path d="M95.5867 343.034H103.429V347.968H95.5867V343.034Z" fill="#E6CFAE"/>
<path d="M95.5867 351.194H103.429V356.128H95.5867V351.194Z" fill="#E6CFAE"/>
<path d="M121.026 124.8H128.868V129.734H121.026V124.8Z" fill="#E6CFAE"/>
<path d="M121.026 132.96H128.868V137.894H121.026V132.96Z" fill="#E6CFAE"/>
<path d="M121.026 141.215H128.868V146.149H121.026V141.215Z" fill="#E6CFAE"/>
<path d="M121.026 149.375H128.868V154.309H121.026V149.375Z" fill="#E6CFAE"/>
<path d="M121.026 157.536H128.868V162.47H121.026V157.536Z" fill="#E6CFAE"/>
<path d="M121.026 165.696H128.868V170.63H121.026V165.696Z" fill="#E6CFAE"/>
<path d="M121.026 173.856H128.868V178.79H121.026V173.856Z" fill="#E6CFAE"/>
<path d="M121.026 182.016H128.868V186.95H121.026V182.016Z" fill="#E6CFAE"/>
<path d="M121.026 190.271H128.868V195.205H121.026V190.271Z" fill="#E6CFAE"/>
<path d="M121.026 198.431H128.868V203.365H121.026V198.431Z" fill="#E6CFAE"/>
<path d="M121.026 206.591H128.868V211.525H121.026V206.591Z" fill="#E6CFAE"/>
<path d="M121.026 214.751H128.868V219.685H121.026V214.751Z" fill="#E6CFAE"/>
<path d="M121.026 222.911H128.868V227.845H121.026V222.911Z" fill="#E6CFAE"/>
<path d="M121.026 231.167H128.868V236.101H121.026V231.167Z" fill="#E6CFAE"/>
<path d="M121.026 239.327H128.868V244.261H121.026V239.327Z" fill="#E6CFAE"/>
<path d="M121.026 247.485H128.868V252.419H121.026V247.485Z" fill="#E6CFAE"/>
<path d="M121.026 255.646H128.868V260.58H121.026V255.646Z" fill="#E6CFAE"/>
<path d="M121.026 263.806H128.868V268.74H121.026V263.806Z" fill="#E6CFAE"/>
<path d="M121.026 271.966H128.868V276.9H121.026V271.966Z" fill="#E6CFAE"/>
<path d="M121.026 280.22H128.868V285.154H121.026V280.22Z" fill="#E6CFAE"/>
<path d="M110.889 116.64H118.732V121.574H110.889V116.64Z" fill="#E6CFAE"/>
<path d="M110.889 124.8H118.732V129.734H110.889V124.8Z" fill="#E6CFAE"/>
<path d="M110.889 132.96H118.732V137.894H110.889V132.96Z" fill="#E6CFAE"/>
<path d="M110.889 141.215H118.732V146.149H110.889V141.215Z" fill="#E6CFAE"/>
<path d="M110.889 149.375H118.732V154.309H110.889V149.375Z" fill="#E6CFAE"/>
<path d="M110.889 157.536H118.732V162.47H110.889V157.536Z" fill="#E6CFAE"/>
<path d="M110.889 165.696H118.732V170.63H110.889V165.696Z" fill="#E6CFAE"/>
<path d="M110.889 182.016H118.732V186.95H110.889V182.016Z" fill="#E6CFAE"/>
<path d="M110.889 198.431H118.732V203.365H110.889V198.431Z" fill="#E6CFAE"/>
<path d="M110.889 206.591H118.732V211.525H110.889V206.591Z" fill="#E6CFAE"/>
<path d="M110.889 222.911H118.732V227.845H110.889V222.911Z" fill="#E6CFAE"/>
<path d="M110.889 231.167H118.732V236.101H110.889V231.167Z" fill="#E6CFAE"/>
<path d="M110.889 239.327H118.732V244.261H110.889V239.327Z" fill="#E6CFAE"/>
<path d="M110.889 255.646H118.732V260.58H110.889V255.646Z" fill="#E6CFAE"/>
<path d="M110.889 263.806H118.732V268.74H110.889V263.806Z" fill="#E6CFAE"/>
<path d="M110.889 280.22H118.732V285.154H110.889V280.22Z" fill="#E6CFAE"/>
<path d="M100.656 116.64H108.498V121.574H100.656V116.64Z" fill="#E6CFAE"/>
<path d="M100.656 124.8H108.498V129.734H100.656V124.8Z" fill="#E6CFAE"/>
<path d="M100.656 132.96H108.498V137.894H100.656V132.96Z" fill="#E6CFAE"/>
<path d="M100.656 141.215H108.498V146.149H100.656V141.215Z" fill="#E6CFAE"/>
<path d="M100.656 149.375H108.498V154.309H100.656V149.375Z" fill="#E6CFAE"/>
<path d="M100.656 165.696H108.498V170.63H100.656V165.696Z" fill="#E6CFAE"/>
<path d="M100.656 173.856H108.498V178.79H100.656V173.856Z" fill="#E6CFAE"/>
<path d="M100.656 182.016H108.498V186.95H100.656V182.016Z" fill="#E6CFAE"/>
<path d="M100.656 190.271H108.498V195.205H100.656V190.271Z" fill="#E6CFAE"/>
<path d="M100.656 198.431H108.498V203.365H100.656V198.431Z" fill="#E6CFAE"/>
<path d="M100.656 206.591H108.498V211.525H100.656V206.591Z" fill="#E6CFAE"/>
<path d="M100.656 214.751H108.498V219.685H100.656V214.751Z" fill="#E6CFAE"/>
<path d="M100.656 222.911H108.498V227.845H100.656V222.911Z" fill="#E6CFAE"/>
<path d="M100.656 231.167H108.498V236.101H100.656V231.167Z" fill="#E6CFAE"/>
<path d="M100.656 239.327H108.498V244.261H100.656V239.327Z" fill="#E6CFAE"/>
<path d="M100.656 247.485H108.498V252.419H100.656V247.485Z" fill="#E6CFAE"/>
<path d="M100.656 255.646H108.498V260.58H100.656V255.646Z" fill="#E6CFAE"/>
<path d="M100.656 271.966H108.498V276.9H100.656V271.966Z" fill="#E6CFAE"/>
<path d="M100.656 280.22H108.498V285.154H100.656V280.22Z" fill="#E6CFAE"/>
<path d="M130.016 364.383H137.859V369.317H130.016V364.383Z" fill="#E6CFAE"/>
<path d="M130.016 372.543H137.859V377.477H130.016V372.543Z" fill="#E6CFAE"/>
<path d="M130.016 380.704H137.859V385.638H130.016V380.704Z" fill="#E6CFAE"/>
<path d="M130.016 388.863H137.859V393.797H130.016V388.863Z" fill="#E6CFAE"/>
<path d="M130.016 397.023H137.859V401.957H130.016V397.023Z" fill="#E6CFAE"/>
<path d="M119.879 364.383H127.721V369.317H119.879V364.383Z" fill="#E6CFAE"/>
<path d="M119.879 380.704H127.721V385.638H119.879V380.704Z" fill="#E6CFAE"/>
<path d="M119.879 388.863H127.721V393.797H119.879V388.863Z" fill="#E6CFAE"/>
<path d="M119.879 397.023H127.721V401.957H119.879V397.023Z" fill="#E6CFAE"/>
<path d="M109.742 364.383H117.584V369.317H109.742V364.383Z" fill="#E6CFAE"/>
<path d="M109.742 372.543H117.584V377.477H109.742V372.543Z" fill="#E6CFAE"/>
<path d="M109.742 380.704H117.584V385.638H109.742V380.704Z" fill="#E6CFAE"/>
<path d="M109.742 388.863H117.584V393.797H109.742V388.863Z" fill="#E6CFAE"/>
<path d="M109.742 397.023H117.584V401.957H109.742V397.023Z" fill="#E6CFAE"/>
<path d="M99.6043 364.383H107.447V369.317H99.6043V364.383Z" fill="#E6CFAE"/>
<path d="M99.6043 372.543H107.447V377.477H99.6043V372.543Z" fill="#E6CFAE"/>
<path d="M99.6043 397.023H107.447V401.957H99.6043V397.023Z" fill="#E6CFAE"/>
<path d="M89.3709 364.383H97.2131V369.317H89.3709V364.383Z" fill="#E6CFAE"/>
<path d="M89.3709 372.543H97.2131V377.477H89.3709V372.543Z" fill="#E6CFAE"/>
<path d="M89.3709 380.704H97.2131V385.638H89.3709V380.704Z" fill="#E6CFAE"/>
<path d="M89.3709 388.863H97.2131V393.797H89.3709V388.863Z" fill="#E6CFAE"/>
<path d="M89.3709 397.023H97.2131V401.957H89.3709V397.023Z" fill="#E6CFAE"/>
<path d="M115.862 70.2412V112.465" stroke="#FEF7ED" stroke-miterlimit="10"/>
<path d="M642.629 378.53H690.447V406.23H642.629V378.53Z" fill="#FEF7ED" stroke="#CCA978" stroke-miterlimit="10"/>
<path d="M666.538 358.394L651.906 368.708L637.273 379.021H666.538H695.803L681.17 368.708L666.538 358.394Z" fill="#FEF7ED" stroke="#CCA978" stroke-miterlimit="10"/>
<path d="M649.359 390.322L649.359 387.768L659.114 387.768L659.114 390.322L649.359 390.322Z" fill="#FEF7ED" stroke="#CCA978" stroke-miterlimit="10"/>
<path d="M649.401 394.698L649.401 392.145L659.156 392.145L659.156 394.698L649.401 394.698Z" fill="#FEF7ED" stroke="#CCA978" stroke-miterlimit="10"/>
<path d="M649.347 399.075L649.347 396.521L659.102 396.521L659.102 399.075L649.347 399.075Z" fill="#FEF7ED" stroke="#CCA978" stroke-miterlimit="10"/>
<path d="M661.889 390.323L661.889 387.77L671.644 387.77L671.644 390.323L661.889 390.323Z" fill="#FEF7ED" stroke="#CCA978" stroke-miterlimit="10"/>
<path d="M661.931 394.701L661.931 392.147L671.686 392.147L671.686 394.701L661.931 394.701Z" fill="#FEF7ED" stroke="#CCA978" stroke-miterlimit="10"/>
<path d="M661.878 399.078L661.878 396.524L671.633 396.524L671.633 399.078L661.878 399.078Z" fill="#FEF7ED" stroke="#CCA978" stroke-miterlimit="10"/>
<path d="M673.859 390.339L673.859 387.785L683.614 387.785L683.614 390.339L673.859 390.339Z" fill="#FEF7ED" stroke="#CCA978" stroke-miterlimit="10"/>
<path d="M673.901 394.717L673.901 392.163L683.656 392.163L683.656 394.717L673.901 394.717Z" fill="#FEF7ED" stroke="#CCA978" stroke-miterlimit="10"/>
<path d="M673.847 399.093L673.847 396.54L683.602 396.54L683.602 399.093L673.847 399.093Z" fill="#FEF7ED" stroke="#CCA978" stroke-miterlimit="10"/>
<path d="M16.2094 370.319H79.999V406.862H16.2094V370.319Z" fill="#FEF7ED" stroke="#CCA978" stroke-miterlimit="10"/>
<path d="M48.0565 343.857L28.5466 357.331L9.03676 370.901H48.0565H87.1719L67.5664 357.331L48.0565 343.857Z" fill="#FEF7ED" stroke="#CCA978" stroke-miterlimit="10"/>
<path d="M25.252 385.316L25.252 381.968L38.2585 381.968L38.2585 385.316L25.252 385.316Z" fill="#FEF7ED" stroke="#CCA978" stroke-miterlimit="10"/>
<path d="M25.2129 390.998L25.2129 387.65L38.2194 387.65L38.2194 390.998L25.2129 390.998Z" fill="#FEF7ED" stroke="#CCA978" stroke-miterlimit="10"/>
<path d="M25.2686 396.679L25.2686 393.332L38.2751 393.332L38.2751 396.679L25.2686 396.679Z" fill="#FEF7ED" stroke="#CCA978" stroke-miterlimit="10"/>
<path d="M41.9597 385.287L41.9597 381.939L54.9663 381.939L54.9663 385.287L41.9597 385.287Z" fill="#FEF7ED" stroke="#CCA978" stroke-miterlimit="10"/>
<path d="M41.9199 390.969L41.9199 387.622L54.9265 387.622L54.9265 390.969L41.9199 390.969Z" fill="#FEF7ED" stroke="#CCA978" stroke-miterlimit="10"/>
<path d="M41.9763 396.651L41.9763 393.304L54.9829 393.304L54.9829 396.651L41.9763 396.651Z" fill="#FEF7ED" stroke="#CCA978" stroke-miterlimit="10"/>
<path d="M57.9189 385.275L57.9189 381.927L70.9255 381.927L70.9255 385.275L57.9189 385.275Z" fill="#FEF7ED" stroke="#CCA978" stroke-miterlimit="10"/>
<path d="M57.8796 390.957L57.8796 387.609L70.8862 387.609L70.8862 390.957L57.8796 390.957Z" fill="#FEF7ED" stroke="#CCA978" stroke-miterlimit="10"/>
<path d="M57.9355 396.639L57.9355 393.292L70.9421 393.292L70.9421 396.639L57.9355 396.639Z" fill="#FEF7ED" stroke="#CCA978" stroke-miterlimit="10"/>
<path d="M401.051 195.907V243.282" stroke="#FEF7ED" stroke-miterlimit="10"/>
<path d="M393.878 216.319V242.142" stroke="#FEF7ED" stroke-miterlimit="10"/>
<path d="M428.115 240.529V365.184" stroke="#FEF7ED" stroke-miterlimit="10"/>
<path d="M428.689 241.193H420.752" stroke="#FEF7ED" stroke-miterlimit="10"/>
<path d="M428.689 244.516H420.752" stroke="#FEF7ED" stroke-miterlimit="10"/>
<path d="M428.689 247.839H420.752" stroke="#FEF7ED" stroke-miterlimit="10"/>
<path d="M428.689 251.162H420.752" stroke="#FEF7ED" stroke-miterlimit="10"/>
<path d="M428.689 254.484H420.752" stroke="#FEF7ED" stroke-miterlimit="10"/>
<path d="M428.689 257.807H420.752" stroke="#FEF7ED" stroke-miterlimit="10"/>
<path d="M428.689 261.13H420.752" stroke="#FEF7ED" stroke-miterlimit="10"/>
<path d="M428.689 264.454H420.752" stroke="#FEF7ED" stroke-miterlimit="10"/>
<path d="M428.689 267.775H420.752" stroke="#FEF7ED" stroke-miterlimit="10"/>
<path d="M428.689 271.193H420.752" stroke="#FEF7ED" stroke-miterlimit="10"/>
<path d="M428.689 274.516H420.752" stroke="#FEF7ED" stroke-miterlimit="10"/>
<path d="M428.689 277.839H420.752" stroke="#FEF7ED" stroke-miterlimit="10"/>
<path d="M428.689 281.162H420.752" stroke="#FEF7ED" stroke-miterlimit="10"/>
<path d="M428.689 284.485H420.752" stroke="#FEF7ED" stroke-miterlimit="10"/>
<path d="M428.689 287.808H420.752" stroke="#FEF7ED" stroke-miterlimit="10"/>
<path d="M428.689 291.131H420.752" stroke="#FEF7ED" stroke-miterlimit="10"/>
<path d="M428.689 294.454H420.752" stroke="#FEF7ED" stroke-miterlimit="10"/>
<path d="M428.689 297.776H420.752" stroke="#FEF7ED" stroke-miterlimit="10"/>
<path d="M428.689 301.1H420.752" stroke="#FEF7ED" stroke-miterlimit="10"/>
<path d="M428.689 304.422H420.752" stroke="#FEF7ED" stroke-miterlimit="10"/>
<path d="M428.689 307.745H420.752" stroke="#FEF7ED" stroke-miterlimit="10"/>
<path d="M428.689 311.068H420.752" stroke="#FEF7ED" stroke-miterlimit="10"/>
<path d="M428.689 314.391H420.752" stroke="#FEF7ED" stroke-miterlimit="10"/>
<path d="M428.689 317.714H420.752" stroke="#FEF7ED" stroke-miterlimit="10"/>
<path d="M428.689 321.036H420.752" stroke="#FEF7ED" stroke-miterlimit="10"/>
<path d="M428.689 324.455H420.752" stroke="#FEF7ED" stroke-miterlimit="10"/>
<path d="M428.689 327.778H420.752" stroke="#FEF7ED" stroke-miterlimit="10"/>
<path d="M428.689 331.101H420.752" stroke="#FEF7ED" stroke-miterlimit="10"/>
<path d="M428.689 334.423H420.752" stroke="#FEF7ED" stroke-miterlimit="10"/>
<path d="M428.689 337.746H420.752" stroke="#FEF7ED" stroke-miterlimit="10"/>
<path d="M428.689 341.069H420.752" stroke="#FEF7ED" stroke-miterlimit="10"/>
<path d="M428.689 344.391H420.752" stroke="#FEF7ED" stroke-miterlimit="10"/>
<path d="M428.689 347.715H420.752" stroke="#FEF7ED" stroke-miterlimit="10"/>
<path d="M428.689 351.038H420.752" stroke="#FEF7ED" stroke-miterlimit="10"/>
<path d="M428.689 354.36H420.752" stroke="#FEF7ED" stroke-miterlimit="10"/>
<path d="M428.689 357.684H420.752" stroke="#FEF7ED" stroke-miterlimit="10"/>
<path d="M428.689 361.006H420.752" stroke="#FEF7ED" stroke-miterlimit="10"/>
<path d="M428.689 364.329H420.752" stroke="#FEF7ED" stroke-miterlimit="10"/>
<path d="M380.967 241.478H421.135V316.385H380.967V241.478Z" fill="#FEF7ED" stroke="#CCA978" stroke-miterlimit="10"/>
<path d="M407.745 282.872H434.523V320.752H407.745V282.872Z" fill="#FEF7ED" stroke="#CCA978" stroke-miterlimit="10"/>
<path d="M380.967 306.701H434.523V406.862H380.967V306.701Z" fill="#FEF7ED" stroke="#CCA978" stroke-miterlimit="10"/>
<path d="M421.134 288.378H429.263V301.86H421.134V288.378Z" fill="#FEF7ED" stroke="#CCA978" stroke-miterlimit="10"/>
<path d="M387.184 248.503H405.354V256.478H387.184V248.503Z" fill="#FEF7ED" stroke="#CCA978" stroke-miterlimit="10"/>
<path d="M387.184 260.371H405.354V268.346H387.184V260.371Z" fill="#FEF7ED" stroke="#CCA978" stroke-miterlimit="10"/>
<path d="M387.184 271.668H405.354V279.643H387.184V271.668Z" fill="#FEF7ED" stroke="#CCA978" stroke-miterlimit="10"/>
<path d="M420.082 312.872H429.263V317.144H420.082V312.872Z" fill="#E6CFAE"/>
<path d="M420.082 319.897H429.263V324.17H420.082V319.897Z" fill="#E6CFAE"/>
<path d="M408.319 312.872H417.5V317.144H408.319V312.872Z" fill="#E6CFAE"/>
<path d="M408.319 319.897H417.5V324.17H408.319V319.897Z" fill="#E6CFAE"/>
<path d="M396.556 312.872H405.737V317.144H396.556V312.872Z" fill="#E6CFAE"/>
<path d="M396.556 319.897H405.737V324.17H396.556V319.897Z" fill="#E6CFAE"/>
<path d="M384.697 312.872H393.878V317.144H384.697V312.872Z" fill="#E6CFAE"/>
<path d="M384.697 319.897H393.878V324.17H384.697V319.897Z" fill="#E6CFAE"/>
<path d="M420.082 326.923H429.263V331.195H420.082V326.923Z" fill="#E6CFAE"/>
<path d="M420.082 333.854H429.263V338.126H420.082V333.854Z" fill="#E6CFAE"/>
<path d="M408.319 326.923H417.5V331.195H408.319V326.923Z" fill="#E6CFAE"/>
<path d="M408.319 333.854H417.5V338.126H408.319V333.854Z" fill="#E6CFAE"/>
<path d="M396.556 326.923H405.737V331.195H396.556V326.923Z" fill="#E6CFAE"/>
<path d="M396.556 333.854H405.737V338.126H396.556V333.854Z" fill="#E6CFAE"/>
<path d="M384.697 326.923H393.878V331.195H384.697V326.923Z" fill="#E6CFAE"/>
<path d="M384.697 333.854H393.878V338.126H384.697V333.854Z" fill="#E6CFAE"/>
<path d="M420.082 340.879H429.263V345.152H420.082V340.879Z" fill="#E6CFAE"/>
<path d="M420.082 347.904H429.263V352.177H420.082V347.904Z" fill="#E6CFAE"/>
<path d="M408.319 340.879H417.5V345.152H408.319V340.879Z" fill="#E6CFAE"/>
<path d="M408.319 347.904H417.5V352.177H408.319V347.904Z" fill="#E6CFAE"/>
<path d="M396.556 340.879H405.737V345.152H396.556V340.879Z" fill="#E6CFAE"/>
<path d="M396.556 347.904H405.737V352.177H396.556V347.904Z" fill="#E6CFAE"/>
<path d="M384.697 340.879H393.878V345.152H384.697V340.879Z" fill="#E6CFAE"/>
<path d="M384.697 347.904H393.878V352.177H384.697V347.904Z" fill="#E6CFAE"/>
<path d="M420.082 354.93H429.263V359.202H420.082V354.93Z" fill="#E6CFAE"/>
<path d="M420.082 361.956H429.263V366.228H420.082V361.956Z" fill="#E6CFAE"/>
<path d="M408.319 354.93H417.5V359.202H408.319V354.93Z" fill="#E6CFAE"/>
<path d="M408.319 361.956H417.5V366.228H408.319V361.956Z" fill="#E6CFAE"/>
<path d="M396.556 354.93H405.737V359.202H396.556V354.93Z" fill="#E6CFAE"/>
<path d="M396.556 361.956H405.737V366.228H396.556V361.956Z" fill="#E6CFAE"/>
<path d="M384.697 354.93H393.878V359.202H384.697V354.93Z" fill="#E6CFAE"/>
<path d="M384.697 361.956H393.878V366.228H384.697V361.956Z" fill="#E6CFAE"/>
<path d="M415.588 239.01H416.736V241.193H415.588V239.01Z" fill="#FEF7ED" stroke="#CCA978" stroke-miterlimit="10"/>
<path d="M411.762 227.807C409.18 230.37 409.18 234.548 411.762 237.111C414.345 239.675 418.553 239.675 421.135 237.111" fill="#FEF7ED"/>
<path d="M411.762 227.807C409.18 230.37 409.18 234.548 411.762 237.111C414.345 239.675 418.553 239.675 421.135 237.111" stroke="#CCA978" stroke-miterlimit="10"/>
<path d="M273.376 320.235H284.948V351.1H273.376V320.235Z" fill="#FEF7ED" stroke="#CCA978" stroke-miterlimit="10"/>
<path d="M223.549 356.694H287.339V406.861H223.549V356.694Z" fill="#FEF7ED" stroke="#CCA978" stroke-miterlimit="10"/>
<path d="M255.396 320.235L235.886 338.884L216.377 357.441H255.396H294.512L275.002 338.884L255.396 320.235Z" fill="#FEF7ED" stroke="#CCA978" stroke-miterlimit="10"/>
<path d="M232.731 364.621H237.417V389.984H232.731V364.621Z" fill="#FEF7ED" stroke="#CCA978" stroke-miterlimit="10"/>
<path d="M245.258 364.621H281.313V389.984H245.258V364.621Z" fill="#FEF7ED" stroke="#CCA978" stroke-miterlimit="10"/>
<path d="M422.76 389.093H434.619V401.908H422.76V389.093Z" fill="#FEF7ED" stroke="#CCA978" stroke-miterlimit="10"/>
<path d="M421.517 401.908H435.767V404.395H421.517V401.908Z" fill="#FEF7ED" stroke="#CCA978" stroke-miterlimit="10"/>
<path d="M428.69 397.031C427.844 397.031 427.159 396.346 427.159 395.501C427.159 394.656 427.844 393.971 428.69 393.971C429.535 393.971 430.22 394.656 430.22 395.501C430.22 396.346 429.535 397.031 428.69 397.031Z" fill="#FEF7ED" stroke="#CCA978" stroke-miterlimit="10"/>
<path d="M428.69 385.364C427.844 385.364 427.159 384.678 427.159 383.833C427.159 382.988 427.844 382.303 428.69 382.303C429.535 382.303 430.22 382.988 430.22 383.833C430.22 384.678 429.535 385.364 428.69 385.364Z" fill="#FEF7ED" stroke="#CCA978" stroke-miterlimit="10"/>
<path d="M420.848 391.676C420.848 387.372 424.386 383.833 428.69 383.833C432.994 383.833 436.532 387.372 436.532 391.676H420.848Z" fill="#FEF7ED" stroke="#CCA978" stroke-miterlimit="10"/>
<path d="M552.634 390.624H564.493V403.439H552.634V390.624Z" fill="#FEF7ED" stroke="#CCA978" stroke-miterlimit="10"/>
<path d="M551.487 403.343H565.737V405.83H551.487V403.343Z" fill="#FEF7ED" stroke="#CCA978" stroke-miterlimit="10"/>
<path d="M558.66 398.562C557.814 398.562 557.129 397.877 557.129 397.032C557.129 396.187 557.814 395.501 558.66 395.501C559.505 395.501 560.19 396.187 560.19 397.032C560.19 397.877 559.505 398.562 558.66 398.562Z" fill="#FEF7ED" stroke="#CCA978" stroke-miterlimit="10"/>
<path d="M558.66 386.894C557.814 386.894 557.129 386.209 557.129 385.364C557.129 384.519 557.814 383.833 558.66 383.833C559.505 383.833 560.19 384.519 560.19 385.364C560.19 386.209 559.505 386.894 558.66 386.894Z" fill="#FEF7ED" stroke="#CCA978" stroke-miterlimit="10"/>
<path d="M550.818 393.206C550.818 388.902 554.356 385.364 558.66 385.364C562.964 385.364 566.502 388.902 566.502 393.206H550.818Z" fill="#FEF7ED" stroke="#CCA978" stroke-miterlimit="10"/>
<path d="M581.89 375.889H585.051V406.862H581.89V375.889Z" fill="#FEF7ED" stroke="#CCA978" stroke-miterlimit="10"/>
<path d="M562.772 357.534C562.772 353.421 566.119 350.074 570.232 350.074C571.188 350.074 572.049 350.265 572.909 350.552C575.587 348.161 579.126 346.727 583.047 346.727C584.481 346.727 585.82 346.918 587.064 347.3C587.733 346.535 588.785 346.057 589.837 346.057C591.941 346.057 593.758 347.779 593.758 349.978C593.758 350.361 593.663 350.648 593.663 350.935C594.045 351.317 594.428 351.7 594.81 352.082C595.48 351.604 596.245 351.413 597.01 351.413C599.114 351.413 600.931 353.134 600.931 355.334C600.931 355.812 600.835 356.29 600.644 356.673C602.652 357.725 604.087 359.924 604.087 362.411C604.087 365.758 601.6 368.436 598.349 368.819C598.349 369.01 598.444 369.201 598.444 369.488C598.444 371.592 596.723 373.409 594.523 373.409C594.236 373.409 594.045 373.409 593.758 373.314C590.985 375.991 587.159 377.713 583.047 377.713C579.7 377.713 576.544 376.661 574.057 374.748C573.388 375.226 572.622 375.513 571.762 375.513C569.658 375.513 567.841 373.792 567.841 371.592C567.841 370.444 568.319 369.392 569.084 368.723C568.988 368.627 568.988 368.532 568.893 368.34C568.51 368.436 568.032 368.532 567.554 368.532C565.354 368.532 563.537 366.715 563.537 364.515C563.537 363.559 563.824 362.698 564.398 362.028C563.346 360.881 562.772 359.255 562.772 357.534Z" fill="#FEF7ED" stroke="#CCA978" stroke-miterlimit="10"/>
<path d="M23.6689 376.183H26.4424V406.021H23.6689V376.183Z" fill="#FEF7ED" stroke="#CCA978" stroke-miterlimit="10"/>
<path d="M14.8701 362.602C15.0614 358.968 18.0261 356.099 21.6603 356.099C24.0512 356.099 26.1552 357.342 27.3985 359.255C28.3548 358.394 29.5981 357.82 31.0326 357.82C33.9017 357.82 36.2927 360.211 36.2927 363.08C36.2927 363.463 36.2927 363.845 36.197 364.228C40.0225 364.897 42.8916 368.245 42.8916 372.261C42.8916 376.756 39.2574 380.486 34.6668 380.486C34.4755 380.486 34.3799 380.486 34.1886 380.486C32.5628 383.068 29.4068 384.885 25.7726 384.885C22.8079 384.885 20.1301 383.642 18.4086 381.825C18.026 381.921 17.6435 381.921 17.1653 381.921C11.8097 381.921 7.41039 377.521 7.41039 372.166C7.41039 367.479 10.5664 363.654 14.8701 362.602Z" fill="#FEF7ED" stroke="#CCA978" stroke-miterlimit="10"/>
<path d="M10.8537 388.137H12.5752V406.403H10.8537V388.137Z" fill="#FEF7ED" stroke="#CCA978" stroke-miterlimit="10"/>
<path d="M5.49724 379.816C5.59287 377.616 7.41002 375.799 9.60966 375.799C11.0442 375.799 12.3831 376.564 13.1482 377.712C13.722 377.138 14.4871 376.851 15.3479 376.851C17.1649 376.851 18.5995 378.286 18.5995 380.103C18.5995 380.294 18.5995 380.581 18.5038 380.772C20.7991 381.155 22.6162 383.259 22.6162 385.65C22.6162 388.423 20.4166 390.623 17.6431 390.623C17.5475 390.623 17.4518 390.623 17.3562 390.623C16.3998 392.249 14.4871 393.301 12.1918 393.301C10.3747 393.301 8.74893 392.536 7.69693 391.388C7.41002 391.388 7.2187 391.484 6.93179 391.484C3.68014 391.484 1.00236 388.806 1.00236 385.554C0.906727 382.781 2.91505 380.486 5.49724 379.816Z" fill="#FEF7ED" stroke="#CCA978" stroke-miterlimit="10"/>
<path d="M461.793 375.258H464.953V406.23H461.793V375.258Z" fill="#FEF7ED" stroke="#CCA978" stroke-miterlimit="10"/>
<path d="M452.982 361.454C453.173 357.82 456.138 354.951 459.772 354.951C462.163 354.951 464.267 356.194 465.51 358.107C466.466 357.246 467.71 356.672 469.144 356.672C472.013 356.672 474.404 359.063 474.404 361.932C474.404 362.315 474.404 362.697 474.309 363.08C478.134 363.749 481.003 367.097 481.003 371.113C481.003 375.608 477.369 379.338 472.778 379.338C472.587 379.338 472.492 379.338 472.3 379.338C470.674 381.92 467.518 383.737 463.884 383.737C460.919 383.737 458.242 382.494 456.52 380.677C456.138 380.773 455.755 380.773 455.277 380.773C449.921 380.773 445.522 376.373 445.522 371.018C445.618 366.236 448.774 362.41 452.982 361.454Z" fill="#FEF7ED" stroke="#CCA978" stroke-miterlimit="10"/>
<path d="M449.152 386.635H451.048V406.23H449.152V386.635Z" fill="#FEF7ED" stroke="#CCA978" stroke-miterlimit="10"/>
<path d="M443.705 378.669C443.8 376.469 445.617 374.652 447.817 374.652C449.251 374.652 450.59 375.417 451.355 376.565C451.929 375.991 452.694 375.704 453.555 375.704C455.372 375.704 456.807 377.139 456.807 378.956C456.807 379.147 456.807 379.434 456.711 379.625C459.006 380.008 460.823 382.112 460.823 384.503C460.823 387.276 458.624 389.476 455.85 389.476C455.755 389.476 455.659 389.476 455.563 389.476C454.607 391.102 452.694 392.154 450.399 392.154C448.582 392.154 446.956 391.389 445.904 390.241C445.617 390.241 445.426 390.337 445.139 390.337C441.887 390.337 439.21 387.659 439.21 384.407C439.114 381.634 441.027 379.243 443.705 378.669Z" fill="#FEF7ED" stroke="#CCA978" stroke-miterlimit="10"/>
<path d="M296.186 378.418H299.347V406.862H296.186V378.418Z" fill="#FEF7ED" stroke="#CCA978" stroke-miterlimit="10"/>
<path d="M287.435 364.802C287.626 361.167 290.591 358.298 294.225 358.298C296.616 358.298 298.72 359.542 299.963 361.454C300.919 360.594 302.163 360.02 303.597 360.02C306.466 360.02 308.857 362.411 308.857 365.28C308.857 365.662 308.857 366.045 308.761 366.427C312.587 367.097 315.456 370.444 315.456 374.461C315.456 378.956 311.822 382.686 307.231 382.686C307.04 382.686 306.944 382.686 306.753 382.686C305.127 385.268 301.971 387.085 298.337 387.085C295.372 387.085 292.695 385.842 290.973 384.025C290.591 384.12 290.208 384.12 289.73 384.12C284.374 384.12 279.975 379.721 279.975 374.365C279.975 369.679 283.227 365.854 287.435 364.802Z" fill="#FEF7ED" stroke="#CCA978" stroke-miterlimit="10"/>
<path d="M283.544 390.428H285.44V406.862H283.544V390.428Z" fill="#FEF7ED" stroke="#CCA978" stroke-miterlimit="10"/>
<path d="M278.063 382.017C278.158 379.817 279.975 378 282.175 378C283.61 378 284.949 378.765 285.714 379.913C286.287 379.339 287.053 379.052 287.913 379.052C289.73 379.052 291.165 380.487 291.165 382.304C291.165 382.495 291.165 382.782 291.069 382.973C293.365 383.356 295.182 385.46 295.182 387.851C295.182 390.624 292.982 392.824 290.209 392.824C290.113 392.824 290.017 392.824 289.922 392.824C288.965 394.449 287.053 395.501 284.757 395.501C282.94 395.501 281.314 394.736 280.262 393.589C279.975 393.589 279.784 393.684 279.497 393.684C276.246 393.684 273.568 391.007 273.568 387.755C273.568 384.981 275.481 382.686 278.063 382.017Z" fill="#FEF7ED" stroke="#CCA978" stroke-miterlimit="10"/>
<path d="M8.58472 406.862H718.422V406.23H8.58472V406.862Z" fill="#FEF7ED" stroke="#CCA978" stroke-miterlimit="10"/>
<path d="M149.718 385.28V406.23" stroke="#CCA978" stroke-miterlimit="10"/>
<path d="M149.718 386.059C146.549 386.059 143.98 383.441 143.98 380.212C143.98 376.983 146.549 374.365 149.718 374.365C152.887 374.365 155.456 376.983 155.456 380.212C155.456 383.441 152.887 386.059 149.718 386.059Z" fill="#FEF7ED" stroke="#CCA978" stroke-miterlimit="10"/>
<path d="M515.624 386.128V406.69" stroke="#CCA978" stroke-miterlimit="10"/>
<path d="M515.624 386.798C512.455 386.798 509.886 384.229 509.886 381.059C509.886 377.89 512.455 375.321 515.624 375.321C518.793 375.321 521.362 377.89 521.362 381.059C521.362 384.229 518.793 386.798 515.624 386.798Z" fill="#FEF7ED" stroke="#CCA978" stroke-miterlimit="10"/>
</g>
</svg>
