<svg width="26" height="29" viewBox="0 0 26 29" fill="none" xmlns="http://www.w3.org/2000/svg">
<path d="M25.0105 26.1174C24.8831 26.1174 24.7609 26.168 24.6708 26.2581C24.5807 26.3482 24.5301 26.4704 24.5301 26.5978V28.0391H21.6476V21.3468C22.9092 22.1514 23.8401 23.3823 24.2707 24.8154C24.289 24.876 24.319 24.9324 24.3591 24.9813C24.3992 25.0303 24.4485 25.0709 24.5043 25.1008C24.56 25.1307 24.6212 25.1493 24.6841 25.1555C24.7471 25.1618 24.8106 25.1556 24.8712 25.1373C24.9318 25.119 24.9881 25.089 25.0371 25.0489C25.0861 25.0088 25.1266 24.9595 25.1565 24.9037C25.1864 24.848 25.205 24.7869 25.2113 24.7239C25.2176 24.6609 25.2114 24.5974 25.1931 24.5368C24.7424 23.0536 23.8285 21.7537 22.5852 20.8277C21.3419 19.9017 19.8348 19.3984 18.2846 19.3914H16.3629V17.7003C17.1897 17.0182 17.7881 16.0995 18.078 15.0676H18.2846C18.6 15.0676 18.9124 15.0055 19.2038 14.8847C19.4953 14.764 19.7601 14.5871 19.9831 14.364C20.2062 14.141 20.3831 13.8762 20.5038 13.5847C20.6246 13.2933 20.6867 12.9809 20.6867 12.6655V12.185C20.6858 11.9368 20.6195 11.6932 20.4945 11.4788C20.7 11.3493 20.8693 11.1699 20.9869 10.9574C21.1045 10.745 21.1665 10.5062 21.1671 10.2633V9.7829C21.1663 9.48554 21.0735 9.19572 20.9015 8.95317C20.7295 8.71062 20.4866 8.52722 20.2063 8.4281V8.34162C20.2112 6.8204 19.7314 5.33715 18.8365 4.10702C17.9415 2.87689 16.678 1.96386 15.2291 1.50035C15.2062 1.19795 15.0885 0.910463 14.8928 0.678821C14.7552 0.524995 14.5862 0.402499 14.3973 0.319615C14.2083 0.236731 14.0037 0.195392 13.7974 0.198395H12.2024C11.8385 0.197324 11.4877 0.333913 11.2204 0.580746C10.9531 0.82758 10.789 1.16639 10.7611 1.52918C9.18298 2.03607 7.8264 3.06876 6.91768 4.45497C6.84824 4.56583 6.82567 4.69972 6.85496 4.82721C6.88424 4.9547 6.96296 5.06533 7.07382 5.13478C7.18467 5.20422 7.31857 5.22678 7.44606 5.1975C7.57354 5.16822 7.68418 5.08949 7.75362 4.97864C8.05415 4.51405 8.41615 4.09225 8.82977 3.72472L9.79063 8.36084H6.75433C6.75371 7.80602 6.82641 7.25355 6.97052 6.71778C6.98949 6.60053 6.96435 6.48041 6.89996 6.38061C6.83557 6.28081 6.7365 6.20839 6.62185 6.17734C6.50721 6.14629 6.38513 6.15881 6.27918 6.21248C6.17322 6.26615 6.0909 6.35716 6.04811 6.46796C5.88053 7.07846 5.7949 7.70854 5.79348 8.34162V8.4281C5.51313 8.52722 5.27029 8.71062 5.09827 8.95317C4.92625 9.19572 4.83346 9.48554 4.83263 9.7829V10.2633C4.83325 10.5062 4.89524 10.745 5.01282 10.9574C5.13041 11.1699 5.29979 11.3493 5.50522 11.4788C5.38023 11.6932 5.31395 11.9368 5.31305 12.185V12.6655C5.31305 13.3025 5.56613 13.9135 6.01662 14.364C6.46711 14.8145 7.0781 15.0676 7.71519 15.0676H7.92177C8.21164 16.0995 8.8101 17.0182 9.63689 17.7003V19.3914H7.71519C5.80393 19.3914 3.97096 20.1507 2.61949 21.5021C1.26803 22.8536 0.508789 24.6866 0.508789 26.5978V28.5195C0.508789 28.6469 0.559405 28.7691 0.649503 28.8592C0.7396 28.9493 0.861798 29 0.989215 29H25.0105C25.138 29 25.2602 28.9493 25.3503 28.8592C25.4403 28.7691 25.491 28.6469 25.491 28.5195V26.5978C25.491 26.4704 25.4403 26.3482 25.3503 26.2581C25.2602 26.168 25.138 26.1174 25.0105 26.1174ZM5.31305 26.5978H12.5195V28.0391H5.31305V26.5978ZM12.9999 21.7936C13.9198 21.8423 14.8281 21.5706 15.5702 21.0249L12.9999 25.1998L10.4296 21.0249C11.1717 21.5706 12.08 21.8423 12.9999 21.7936ZM13.4803 26.5978H20.6867V28.0391H13.4803V26.5978ZM20.6867 20.8327V25.637H13.8598L17.1123 20.3523H18.2846C19.1094 20.3498 19.9263 20.5132 20.6867 20.8327ZM19.7258 12.6655C19.7258 13.0477 19.574 13.4143 19.3037 13.6846C19.0334 13.9549 18.6668 14.1067 18.2846 14.1067C18.2846 13.9482 18.2846 13.7897 18.2846 13.6263V11.7046H19.2454C19.3728 11.7046 19.495 11.7552 19.5851 11.8453C19.6752 11.9354 19.7258 12.0576 19.7258 12.185V12.6655ZM19.2454 8.34162H16.1947L17.1556 3.71031C17.2372 3.78238 17.3237 3.84964 17.4006 3.9265C17.9849 4.50376 18.4489 5.19126 18.7656 5.94915C19.0822 6.70703 19.2453 7.52023 19.2454 8.34162ZM11.8372 1.30338C11.8823 1.25064 11.9383 1.2083 12.0014 1.17928C12.0644 1.15025 12.133 1.13522 12.2024 1.13523H13.7974C13.8668 1.13522 13.9353 1.15025 13.9984 1.17928C14.0614 1.2083 14.1174 1.25064 14.1625 1.30338C14.2081 1.3563 14.2416 1.41854 14.2607 1.48575C14.2798 1.55296 14.284 1.62352 14.273 1.69252L13.6004 5.93949H12.3993L11.7267 1.69252C11.7158 1.62352 11.72 1.55296 11.739 1.48575C11.7581 1.41854 11.7916 1.3563 11.8372 1.30338ZM9.67533 3.05693C10.0554 2.81809 10.4596 2.62001 10.8812 2.46601L11.4481 6.07881C11.4839 6.30705 11.6007 6.51476 11.7772 6.66387C11.9537 6.81298 12.1779 6.89352 12.409 6.89073H13.61C13.841 6.89352 14.0653 6.81298 14.2418 6.66387C14.4182 6.51476 14.5351 6.30705 14.5709 6.07881L15.1378 2.47562C15.552 2.62861 15.9496 2.82338 16.3244 3.05693L15.2146 8.34162H10.7851L9.67533 3.05693ZM5.79348 9.7829C5.79348 9.65548 5.8441 9.53329 5.93419 9.44319C6.02429 9.35309 6.14649 9.30247 6.27391 9.30247H19.7258C19.8533 9.30247 19.9755 9.35309 20.0656 9.44319C20.1557 9.53329 20.2063 9.65548 20.2063 9.7829V10.2633C20.2063 10.3907 20.1557 10.5129 20.0656 10.603C19.9755 10.6931 19.8533 10.7438 19.7258 10.7438H6.27391C6.14649 10.7438 6.02429 10.6931 5.93419 10.603C5.8441 10.5129 5.79348 10.3907 5.79348 10.2633V9.7829ZM7.71519 14.1067C7.33293 14.1067 6.96634 13.9549 6.69605 13.6846C6.42575 13.4143 6.27391 13.0477 6.27391 12.6655V12.185C6.27391 12.0576 6.32452 11.9354 6.41462 11.8453C6.50472 11.7552 6.62692 11.7046 6.75433 11.7046H7.71519V13.6263C7.71519 13.7897 7.71519 13.9482 7.73921 14.1067H7.71519ZM8.67604 13.6263V11.7046H17.3237V13.6263C17.3237 14.7731 16.8682 15.8729 16.0573 16.6837C15.2464 17.4946 14.1466 17.9501 12.9999 17.9501C11.8531 17.9501 10.7533 17.4946 9.94246 16.6837C9.13159 15.8729 8.67604 14.7731 8.67604 13.6263ZM12.9999 18.911C13.8355 18.9113 14.659 18.712 15.402 18.3297V19.771C15.2819 20.0064 14.7438 20.8327 12.9999 20.8327C11.2559 20.8327 10.713 20.0016 10.5977 19.7758V18.3345C11.3412 18.7151 12.1647 18.9128 12.9999 18.911ZM8.88743 20.3523L12.1399 25.637H5.31305V20.8327C6.0742 20.5156 6.89061 20.3523 7.71519 20.3523H8.88743ZM1.46964 26.5978C1.47081 25.5503 1.73543 24.5199 2.23915 23.6015C2.74287 22.683 3.46951 21.906 4.3522 21.342V28.0391H1.46964V26.5978Z" fill="white"/>
</svg>
