<svg width="30" height="30" viewBox="0 0 30 30" fill="none" xmlns="http://www.w3.org/2000/svg">
<path d="M29.5 29H26.5V12.5C26.5 12.2239 26.2761 12 26 12H19V0.5C19 0.223875 18.7761 0 18.5 0H5.5C5.22388 0 5 0.223875 5 0.5V29H0.5C0.223875 29 0 29.2239 0 29.5C0 29.7761 0.223875 30 0.5 30H29.5C29.7761 30 30 29.7761 30 29.5C30 29.2239 29.7761 29 29.5 29ZM10.5 29H8.5V24.5C8.5 24.2239 8.72388 24 9 24H10C10.2761 24 10.5 24.2239 10.5 24.5V29ZM12.5 12.5V29H11.5V24.5C11.5 23.6716 10.8284 23 10 23H9C8.17156 23 7.5 23.6716 7.5 24.5V29H6V1H18V12H13C12.7239 12 12.5 12.2239 12.5 12.5ZM25.5 29H13.5V13H25.5V29Z" fill="white"/>
<path d="M16 7H13C12.7239 7 12.5 7.22387 12.5 7.5V10.5C12.5 10.7761 12.7239 11 13 11H16C16.2761 11 16.5 10.7761 16.5 10.5V7.5C16.5 7.22387 16.2761 7 16 7ZM15.5 10H13.5V8H15.5V10Z" fill="white"/>
<path d="M16 2H13C12.7239 2 12.5 2.22387 12.5 2.5V5.5C12.5 5.77612 12.7239 6 13 6H16C16.2761 6 16.5 5.77612 16.5 5.5V2.5C16.5 2.22387 16.2761 2 16 2ZM15.5 5H13.5V3H15.5V5Z" fill="white"/>
<path d="M11 7H8C7.72387 7 7.5 7.22387 7.5 7.5V10.5C7.5 10.7761 7.72387 11 8 11H11C11.2761 11 11.5 10.7761 11.5 10.5V7.5C11.5 7.22387 11.2761 7 11 7ZM10.5 10H8.5V8H10.5V10Z" fill="white"/>
<path d="M11 2H8C7.72387 2 7.5 2.22387 7.5 2.5V5.5C7.5 5.77612 7.72387 6 8 6H11C11.2761 6 11.5 5.77612 11.5 5.5V2.5C11.5 2.22387 11.2761 2 11 2ZM10.5 5H8.5V3H10.5V5Z" fill="white"/>
<path d="M11 12H8C7.72387 12 7.5 12.2239 7.5 12.5V15.5C7.5 15.7761 7.72387 16 8 16H11C11.2761 16 11.5 15.7761 11.5 15.5V12.5C11.5 12.2239 11.2761 12 11 12ZM10.5 15H8.5V13H10.5V15Z" fill="white"/>
<path d="M11 17H8C7.72387 17 7.5 17.2239 7.5 17.5V20.5C7.5 20.7761 7.72387 21 8 21H11C11.2761 21 11.5 20.7761 11.5 20.5V17.5C11.5 17.2239 11.2761 17 11 17ZM10.5 20H8.5V18H10.5V20Z" fill="white"/>
<path d="M20.5 23H23.5C23.7761 23 24 22.7761 24 22.5V19.5C24 19.2239 23.7761 19 23.5 19H20.5C20.2239 19 20 19.2239 20 19.5V22.5C20 22.7761 20.2239 23 20.5 23ZM21 20H23V22H21V20Z" fill="white"/>
<path d="M20.5 18H23.5C23.7761 18 24 17.7761 24 17.5V14.5C24 14.2239 23.7761 14 23.5 14H20.5C20.2239 14 20 14.2239 20 14.5V17.5C20 17.7761 20.2239 18 20.5 18ZM21 15H23V17H21V15Z" fill="white"/>
<path d="M20.5 28H23.5C23.7761 28 24 27.7761 24 27.5V24.5C24 24.2239 23.7761 24 23.5 24H20.5C20.2239 24 20 24.2239 20 24.5V27.5C20 27.7761 20.2239 28 20.5 28ZM21 25H23V27H21V25Z" fill="white"/>
<path d="M15.5 23H18.5C18.7761 23 19 22.7761 19 22.5V19.5C19 19.2239 18.7761 19 18.5 19H15.5C15.2239 19 15 19.2239 15 19.5V22.5C15 22.7761 15.2239 23 15.5 23ZM16 20H18V22H16V20Z" fill="white"/>
<path d="M15.5 18H18.5C18.7761 18 19 17.7761 19 17.5V14.5C19 14.2239 18.7761 14 18.5 14H15.5C15.2239 14 15 14.2239 15 14.5V17.5C15 17.7761 15.2239 18 15.5 18ZM16 15H18V17H16V15Z" fill="white"/>
<path d="M15.5 28H18.5C18.7761 28 19 27.7761 19 27.5V24.5C19 24.2239 18.7761 24 18.5 24H15.5C15.2239 24 15 24.2239 15 24.5V27.5C15 27.7761 15.2239 28 15.5 28ZM16 25H18V27H16V25Z" fill="white"/>
</svg>
