<svg width="30" height="30" viewBox="0 0 30 30" fill="none" xmlns="http://www.w3.org/2000/svg">
<path d="M10.5936 9.40433H19.4064C19.5437 9.40433 19.6745 9.34603 19.7663 9.24387C19.8581 9.14177 19.9021 9.0055 19.8875 8.86893C19.6854 6.98159 18.4392 5.445 16.7577 4.80417C17.3485 4.30397 17.7246 3.5576 17.7246 2.72468C17.7247 1.22226 16.5024 0 15.0001 0C13.4976 0 12.2754 1.22226 12.2754 2.72468C12.2754 3.5576 12.6515 4.30397 13.2423 4.80417C11.5607 5.445 10.3145 6.98159 10.1125 8.86899C10.0979 9.0055 10.1419 9.14177 10.2337 9.24393C10.3256 9.34603 10.4564 9.40433 10.5936 9.40433ZM15.0001 0.967742C15.9688 0.967742 16.7569 1.75591 16.7569 2.72468C16.7569 3.69345 15.9688 4.48155 15.0001 4.48155C14.0313 4.48155 13.2431 3.69339 13.2431 2.72468C13.2431 1.75591 14.0313 0.967742 15.0001 0.967742ZM15 5.44929C16.8387 5.44929 18.4004 6.70046 18.8309 8.43659H11.1692C11.5996 6.70052 13.1613 5.44929 15 5.44929ZM7.07848 5.75722L5.93678 6.01573C5.67597 6.07464 5.41698 5.91121 5.35801 5.65065C5.29898 5.39002 5.46247 5.13091 5.72309 5.07188L8.59638 4.42131C8.75352 4.38569 8.91803 4.43062 9.03519 4.54119C9.15241 4.65169 9.20691 4.81331 9.1806 4.9722L8.74535 7.60191C8.70616 7.83883 8.50106 8.00686 8.26856 8.00686C8.24225 8.00686 8.2157 8.00474 8.18896 8.00032C7.92537 7.95665 7.74694 7.70758 7.79061 7.44393L7.99608 6.20244C4.89597 9.3346 3.29581 13.7439 3.69573 18.1487C3.71992 18.4149 3.52377 18.6502 3.25764 18.6743C3.24276 18.6757 3.22801 18.6763 3.21331 18.6763C2.96587 18.6763 2.75484 18.4875 2.73204 18.2362C2.31627 13.6579 3.92986 9.07427 7.07848 5.75722ZM20.7049 4.09875C20.876 3.89341 21.1812 3.86577 21.3864 4.03687C24.9178 6.98032 27.0179 11.3623 27.137 15.9342L27.7615 14.9441C27.9041 14.7181 28.2029 14.6505 28.4289 14.793C28.6549 14.9355 28.7225 15.2344 28.58 15.4603L27.0084 17.952C26.9225 18.0883 26.7743 18.1728 26.6133 18.1776C26.6086 18.1778 26.6038 18.1778 26.5991 18.1778C26.4434 18.1778 26.2968 18.1028 26.2057 17.9756L24.654 15.8084C24.4985 15.5911 24.5485 15.2889 24.7658 15.1333C24.9832 14.9778 25.2854 15.0278 25.4409 15.2451L26.1735 16.2682C26.1508 11.8614 24.1645 7.61208 20.767 4.78016C20.5616 4.60917 20.5339 4.30403 20.7049 4.09875ZM14.5848 26.7886C13.3273 26.7886 12.0691 26.64 10.8363 26.3427L11.631 27.2021C11.8124 27.3983 11.8005 27.7045 11.6043 27.886C11.5112 27.972 11.3934 28.0146 11.2759 28.0146C11.1457 28.0146 11.0159 27.9624 10.9205 27.8592L8.92039 25.6961C8.81104 25.5778 8.76773 25.4129 8.80481 25.2562C8.84195 25.0994 8.95469 24.9714 9.10541 24.9147L11.6004 23.9768C11.8505 23.8827 12.1296 24.0093 12.2237 24.2594C12.3177 24.5096 12.1911 24.7886 11.941 24.8826L10.7616 25.326C13.9959 26.1773 17.4373 25.9262 20.5337 24.5986C20.7792 24.4934 21.0637 24.607 21.1691 24.8526C21.2744 25.0983 21.1606 25.3827 20.915 25.488C18.8979 26.3528 16.7427 26.7886 14.5848 26.7886ZM11.8189 12.4435C11.8189 12.1763 12.0356 11.9597 12.3028 11.9597H14.9156C15.1828 11.9597 15.3994 12.1763 15.3994 12.4435C15.3994 12.7107 15.1828 12.9274 14.9156 12.9274H12.3028C12.0356 12.9274 11.8189 12.7107 11.8189 12.4435ZM9.38999 12.4435C9.38999 12.1763 9.60664 11.9597 9.87386 11.9597H10.6482C10.9154 11.9597 11.132 12.1763 11.132 12.4435C11.132 12.7107 10.9154 12.9274 10.6482 12.9274H9.87386C9.60664 12.9274 9.38999 12.7107 9.38999 12.4435ZM13.9494 21.3379H18.2568L20.0675 23.2228C20.1606 23.3197 20.2873 23.3715 20.4165 23.3715C20.4772 23.3715 20.5385 23.3601 20.5971 23.3364C20.7802 23.2627 20.9003 23.0851 20.9003 22.8876V21.3379H21.2612C22.0784 21.3379 22.7433 20.673 22.7433 19.8558V14.8524C22.7433 14.0352 22.0784 13.3703 21.2612 13.3703H17.5328V11.7398C17.5328 10.9225 16.8679 10.2576 16.0506 10.2576H8.73882C7.92156 10.2576 7.25666 10.9225 7.25666 11.7398V16.7431C7.25666 17.5604 7.92156 18.2253 8.73882 18.2253H9.09973V19.775C9.09973 19.9724 9.21973 20.1501 9.40294 20.2238C9.46154 20.2475 9.52275 20.2588 9.58348 20.2588C9.71273 20.2588 9.83945 20.2071 9.93253 20.1102L11.7432 18.2253H12.4672V19.8558C12.4672 20.673 13.1321 21.3379 13.9494 21.3379ZM21.2612 14.338C21.5448 14.338 21.7756 14.5687 21.7756 14.8524V19.8558C21.7756 20.1394 21.5448 20.3702 21.2612 20.3702H20.4164C20.1492 20.3702 19.9325 20.5868 19.9325 20.8541V21.6855L18.8119 20.5189C18.7206 20.4239 18.5946 20.3702 18.4629 20.3702H13.9494C13.6658 20.3702 13.435 20.1394 13.435 19.8558V14.8524C13.435 14.5687 13.6657 14.338 13.9494 14.338H21.2612ZM11.5371 17.2576C11.4054 17.2576 11.2794 17.3113 11.1881 17.4062L10.0675 18.5728V17.7414C10.0675 17.4742 9.85082 17.2576 9.5836 17.2576H8.73882C8.45521 17.2576 8.22441 17.0268 8.22441 16.7431V11.7398C8.22441 11.4562 8.45515 11.2254 8.73882 11.2254H16.0506C16.3342 11.2254 16.565 11.4561 16.565 11.7398V13.3703H13.9494C13.5653 13.3703 13.215 13.5171 12.9514 13.7576H9.87386C9.60664 13.7576 9.38999 13.9743 9.38999 14.2415C9.38999 14.5087 9.60664 14.7253 9.87386 14.7253H12.473C12.4695 14.7673 12.4672 14.8096 12.4672 14.8524V15.5556H9.87386C9.60664 15.5556 9.38999 15.7723 9.38999 16.0395C9.38999 16.3067 9.60664 16.5233 9.87386 16.5233H12.4672V17.2576H11.5371ZM17.1485 15.5561C17.1485 15.2889 17.3652 15.0722 17.6324 15.0722H20.1261C20.3933 15.0722 20.6099 15.2889 20.6099 15.5561C20.6099 15.8233 20.3933 16.04 20.1261 16.04H17.6324C17.3652 16.04 17.1485 15.8233 17.1485 15.5561ZM14.6006 17.3541C14.6006 17.0869 14.8172 16.8702 15.0844 16.8702H20.1261C20.3934 16.8702 20.61 17.0869 20.61 17.3541C20.61 17.6213 20.3934 17.838 20.1261 17.838H15.0844C14.8172 17.838 14.6006 17.6213 14.6006 17.3541ZM14.6006 19.1521C14.6006 18.8849 14.8172 18.6682 15.0844 18.6682H20.1261C20.3934 18.6682 20.61 18.8849 20.61 19.1521C20.61 19.4193 20.3934 19.636 20.1261 19.636H15.0844C14.8172 19.636 14.6006 19.4193 14.6006 19.1521ZM14.6006 15.5561C14.6006 15.2889 14.8172 15.0722 15.0844 15.0722H15.9778C16.2451 15.0722 16.4617 15.2889 16.4617 15.5561C16.4617 15.8233 16.2451 16.04 15.9778 16.04H15.0844C14.8172 16.04 14.6006 15.8233 14.6006 15.5561ZM6.64807 25.3998C7.23888 24.8996 7.61497 24.1533 7.61497 23.3203C7.61497 21.8179 6.39271 20.5957 4.89029 20.5957C3.38787 20.5957 2.16561 21.8179 2.16561 23.3203C2.16561 24.1533 2.5417 24.8996 3.13244 25.3998C1.45093 26.0407 0.204716 27.5773 0.00276031 29.4647C-0.0118768 29.6012 0.0321556 29.7375 0.12397 29.8396C0.215785 29.9417 0.346551 30 0.48385 30L9.2966 29.9999C9.4339 29.9999 9.56473 29.9416 9.65648 29.8395C9.7483 29.7374 9.79233 29.6011 9.77769 29.4646C9.57574 27.5773 8.32953 26.0407 6.64807 25.3998ZM4.89029 21.5634C5.85906 21.5634 6.64722 22.3516 6.64722 23.3203C6.64722 24.2887 5.85966 25.0766 4.8915 25.0772C4.89107 25.0772 4.89065 25.0772 4.89023 25.0772C4.8898 25.0772 4.88944 25.0772 4.88902 25.0772C3.92085 25.0766 3.13335 24.2886 3.13335 23.3203C3.13335 22.3516 3.92152 21.5634 4.89029 21.5634ZM1.05942 29.0323C1.48976 27.2965 3.05079 26.0455 4.88896 26.045H4.89023H4.8915C6.72966 26.0456 8.2907 27.2966 8.72104 29.0322L1.05942 29.0323ZM29.9972 29.4645C29.7952 27.5772 28.5491 26.0406 26.8676 25.3998C27.4584 24.8996 27.8345 24.1532 27.8345 23.3203C27.8345 21.8179 26.6122 20.5956 25.1098 20.5956C23.6073 20.5956 22.3851 21.8179 22.3851 23.3203C22.3851 24.1532 22.7612 24.8996 23.352 25.3998C21.6704 26.0406 20.4242 27.5773 20.2223 29.4646C20.2077 29.6012 20.2517 29.7374 20.3435 29.8395C20.4353 29.9416 20.5662 29.9999 20.7034 29.9999H29.5161C29.6534 29.9999 29.7843 29.9416 29.876 29.8395C29.9678 29.7374 30.0119 29.601 29.9972 29.4645ZM25.1098 21.5634C26.0785 21.5634 26.8667 22.3516 26.8667 23.3203C26.8667 24.2887 26.0791 25.0766 25.111 25.0772C25.1106 25.0772 25.1102 25.0772 25.1098 25.0772C25.1093 25.0772 25.109 25.0772 25.1086 25.0772C24.1404 25.0766 23.3528 24.2887 23.3528 23.3203C23.3529 22.3516 24.1411 21.5634 25.1098 21.5634ZM21.279 29.0323C21.7093 27.2965 23.2703 26.0455 25.1086 26.045H25.1098C25.1098 26.045 25.1107 26.045 25.1111 26.045C26.9493 26.0456 28.5102 27.2966 28.9406 29.0322L21.279 29.0323Z" fill="white"/>
</svg>
